<mxfile host="65bd71144e">
    <diagram id="tBNWqD2Q69uykqA2-rGM" name="Page-1">
        <mxGraphModel dx="4900" dy="3179" grid="1" gridSize="10" guides="1" tooltips="1" connect="1" arrows="1" fold="1" page="1" pageScale="1" pageWidth="1100" pageHeight="850" math="0" shadow="0">
            <root>
                <mxCell id="0"/>
                <mxCell id="1" parent="0"/>
                <mxCell id="ybkfhQOrvzYeeOzd-4GA-1" value="" style="rounded=1;whiteSpace=wrap;html=1;fillColor=#FFF2CC;opacity=40;strokeColor=#000000;glass=0;strokeWidth=5;" parent="1" vertex="1">
                    <mxGeometry x="415" y="-206" width="2250" height="194.42" as="geometry"/>
                </mxCell>
                <mxCell id="ybkfhQOrvzYeeOzd-4GA-2" value="" style="rounded=1;whiteSpace=wrap;html=1;fillColor=#FFCCCC;opacity=40;strokeColor=#000000;glass=0;strokeWidth=5;" parent="1" vertex="1">
                    <mxGeometry x="415" y="-11.580000000000013" width="2250" height="165.58" as="geometry"/>
                </mxCell>
                <mxCell id="ybkfhQOrvzYeeOzd-4GA-3" value="" style="rounded=1;whiteSpace=wrap;html=1;fillColor=#67AB9F;opacity=40;strokeColor=#000000;glass=0;strokeWidth=5;" parent="1" vertex="1">
                    <mxGeometry x="415" y="154" width="2250" height="130" as="geometry"/>
                </mxCell>
                <mxCell id="ybkfhQOrvzYeeOzd-4GA-4" value="" style="rounded=1;whiteSpace=wrap;html=1;fillColor=#d5e8d4;opacity=40;strokeColor=#000000;glass=0;strokeWidth=5;" parent="1" vertex="1">
                    <mxGeometry x="415" y="-800" width="2250" height="594.42" as="geometry"/>
                </mxCell>
                <mxCell id="ybkfhQOrvzYeeOzd-4GA-5" value="" style="rounded=1;whiteSpace=wrap;html=1;fillColor=#E6D0DE;opacity=40;strokeColor=#000000;glass=0;strokeWidth=5;" parent="1" vertex="1">
                    <mxGeometry x="415" y="284" width="2250" height="170" as="geometry"/>
                </mxCell>
                <mxCell id="ybkfhQOrvzYeeOzd-4GA-6" style="edgeStyle=orthogonalEdgeStyle;rounded=0;orthogonalLoop=1;jettySize=auto;html=1;entryX=0.063;entryY=-0.004;entryDx=0;entryDy=0;entryPerimeter=0;strokeWidth=5;strokeColor=#000000;" parent="1" source="ybkfhQOrvzYeeOzd-4GA-7" target="ybkfhQOrvzYeeOzd-4GA-9" edge="1">
                    <mxGeometry relative="1" as="geometry"/>
                </mxCell>
                <mxCell id="ybkfhQOrvzYeeOzd-4GA-7" value="" style="whiteSpace=wrap;html=1;aspect=fixed;fillColor=#d5e8d4;strokeColor=#000000;strokeWidth=5;" parent="1" vertex="1">
                    <mxGeometry x="1242.51" y="-720" width="140" height="140" as="geometry"/>
                </mxCell>
                <mxCell id="ybkfhQOrvzYeeOzd-4GA-8" value="" style="group;strokeWidth=5;strokeColor=#000000;" parent="1" vertex="1" connectable="0">
                    <mxGeometry x="1262.51" y="-470" width="800" height="40" as="geometry"/>
                </mxCell>
                <mxCell id="ybkfhQOrvzYeeOzd-4GA-9" value="" style="rounded=0;whiteSpace=wrap;html=1;fillColor=#CCFFFF;strokeWidth=5;strokeColor=#000000;" parent="ybkfhQOrvzYeeOzd-4GA-8" vertex="1">
                    <mxGeometry width="800" height="40" as="geometry"/>
                </mxCell>
                <mxCell id="ybkfhQOrvzYeeOzd-4GA-10" value="" style="group;strokeWidth=5;strokeColor=none;" parent="ybkfhQOrvzYeeOzd-4GA-8" vertex="1" connectable="0">
                    <mxGeometry x="360.0049781659389" y="10" width="76.85589519650655" height="20" as="geometry"/>
                </mxCell>
                <mxCell id="ybkfhQOrvzYeeOzd-4GA-11" value="" style="endArrow=none;html=1;rounded=0;strokeWidth=5;strokeColor=#000000;" parent="ybkfhQOrvzYeeOzd-4GA-10" edge="1">
                    <mxGeometry width="50" height="50" relative="1" as="geometry">
                        <mxPoint as="sourcePoint"/>
                        <mxPoint x="29.888403687530325" as="targetPoint"/>
                    </mxGeometry>
                </mxCell>
                <mxCell id="ybkfhQOrvzYeeOzd-4GA-12" value="" style="endArrow=none;html=1;rounded=0;strokeWidth=5;strokeColor=#000000;" parent="ybkfhQOrvzYeeOzd-4GA-10" edge="1">
                    <mxGeometry width="50" height="50" relative="1" as="geometry">
                        <mxPoint x="29.888403687530325" as="sourcePoint"/>
                        <mxPoint x="46.96749150897623" y="20" as="targetPoint"/>
                    </mxGeometry>
                </mxCell>
                <mxCell id="ybkfhQOrvzYeeOzd-4GA-13" value="" style="endArrow=none;html=1;rounded=0;strokeWidth=5;strokeColor=#000000;" parent="ybkfhQOrvzYeeOzd-4GA-10" edge="1">
                    <mxGeometry width="50" height="50" relative="1" as="geometry">
                        <mxPoint x="29.888403687530325" y="20" as="sourcePoint"/>
                        <mxPoint x="46.96749150897623" as="targetPoint"/>
                    </mxGeometry>
                </mxCell>
                <mxCell id="ybkfhQOrvzYeeOzd-4GA-14" value="" style="endArrow=none;html=1;rounded=0;strokeWidth=5;strokeColor=#000000;" parent="ybkfhQOrvzYeeOzd-4GA-10" edge="1">
                    <mxGeometry width="50" height="50" relative="1" as="geometry">
                        <mxPoint x="46.96749150897623" as="sourcePoint"/>
                        <mxPoint x="76.85589519650655" as="targetPoint"/>
                    </mxGeometry>
                </mxCell>
                <mxCell id="ybkfhQOrvzYeeOzd-4GA-15" value="" style="endArrow=none;html=1;rounded=0;strokeWidth=5;strokeColor=#000000;" parent="ybkfhQOrvzYeeOzd-4GA-10" edge="1">
                    <mxGeometry width="50" height="50" relative="1" as="geometry">
                        <mxPoint x="46.96749150897623" y="20" as="sourcePoint"/>
                        <mxPoint x="76.85589519650655" y="20" as="targetPoint"/>
                    </mxGeometry>
                </mxCell>
                <mxCell id="ybkfhQOrvzYeeOzd-4GA-16" value="" style="endArrow=none;html=1;rounded=0;strokeWidth=5;strokeColor=#000000;" parent="ybkfhQOrvzYeeOzd-4GA-10" edge="1">
                    <mxGeometry width="50" height="50" relative="1" as="geometry">
                        <mxPoint y="20" as="sourcePoint"/>
                        <mxPoint x="29.888403687530325" y="20" as="targetPoint"/>
                    </mxGeometry>
                </mxCell>
                <mxCell id="ybkfhQOrvzYeeOzd-4GA-17" style="edgeStyle=orthogonalEdgeStyle;rounded=0;orthogonalLoop=1;jettySize=auto;html=1;entryX=0.388;entryY=0.003;entryDx=0;entryDy=0;entryPerimeter=0;strokeWidth=5;strokeColor=#000000;" parent="1" source="ybkfhQOrvzYeeOzd-4GA-18" edge="1">
                    <mxGeometry relative="1" as="geometry">
                        <mxPoint x="1509.4300000000003" y="-469.87999999999965" as="targetPoint"/>
                    </mxGeometry>
                </mxCell>
                <mxCell id="ybkfhQOrvzYeeOzd-4GA-18" value="" style="whiteSpace=wrap;html=1;aspect=fixed;fillColor=#d5e8d4;strokeColor=#000000;strokeWidth=5;" parent="1" vertex="1">
                    <mxGeometry x="1439.51" y="-720" width="140" height="140" as="geometry"/>
                </mxCell>
                <mxCell id="ybkfhQOrvzYeeOzd-4GA-19" value="" style="endArrow=none;dashed=1;html=1;dashPattern=1 3;strokeWidth=5;rounded=0;strokeColor=#000000;" parent="1" edge="1">
                    <mxGeometry width="50" height="50" relative="1" as="geometry">
                        <mxPoint x="1810.0200000000004" y="-640" as="sourcePoint"/>
                        <mxPoint x="2042.5100000000002" y="-640" as="targetPoint"/>
                    </mxGeometry>
                </mxCell>
                <mxCell id="ybkfhQOrvzYeeOzd-4GA-21" style="edgeStyle=orthogonalEdgeStyle;rounded=0;jumpStyle=none;jumpSize=6;orthogonalLoop=1;jettySize=auto;html=1;startArrow=none;startFill=0;endArrow=classic;endFill=1;startSize=1;endSize=1;strokeColor=#000000;strokeWidth=5;entryX=0.5;entryY=0;entryDx=0;entryDy=0;" parent="1" source="ybkfhQOrvzYeeOzd-4GA-22" target="ybkfhQOrvzYeeOzd-4GA-26" edge="1">
                    <mxGeometry relative="1" as="geometry">
                        <mxPoint x="825.66" y="259.84000000000003" as="targetPoint"/>
                        <Array as="points"/>
                    </mxGeometry>
                </mxCell>
                <mxCell id="ybkfhQOrvzYeeOzd-4GA-22" value="" style="ellipse;whiteSpace=wrap;html=1;aspect=fixed;fillColor=#67AB9F;strokeWidth=5;strokeColor=#000000;" parent="1" vertex="1">
                    <mxGeometry x="794.6700000000001" y="191.84000000000003" width="40" height="40" as="geometry"/>
                </mxCell>
                <mxCell id="ybkfhQOrvzYeeOzd-4GA-23" value="" style="endArrow=none;html=1;rounded=0;strokeColor=#000000;strokeWidth=5;exitX=0;exitY=0;exitDx=0;exitDy=0;entryX=1;entryY=1;entryDx=0;entryDy=0;" parent="1" source="ybkfhQOrvzYeeOzd-4GA-22" target="ybkfhQOrvzYeeOzd-4GA-22" edge="1">
                    <mxGeometry width="50" height="50" relative="1" as="geometry">
                        <mxPoint x="849.6700000000001" y="243.59000000000003" as="sourcePoint"/>
                        <mxPoint x="874.6700000000001" y="212.34000000000003" as="targetPoint"/>
                    </mxGeometry>
                </mxCell>
                <mxCell id="ybkfhQOrvzYeeOzd-4GA-24" value="" style="endArrow=none;html=1;rounded=0;strokeColor=#000000;strokeWidth=5;exitX=0;exitY=1;exitDx=0;exitDy=0;entryX=1;entryY=0;entryDx=0;entryDy=0;" parent="1" source="ybkfhQOrvzYeeOzd-4GA-22" target="ybkfhQOrvzYeeOzd-4GA-22" edge="1">
                    <mxGeometry width="50" height="50" relative="1" as="geometry">
                        <mxPoint x="805.5278643762692" y="188.41233047033631" as="sourcePoint"/>
                        <mxPoint x="833.9814841176051" y="223.55341811969663" as="targetPoint"/>
                    </mxGeometry>
                </mxCell>
                <mxCell id="ybkfhQOrvzYeeOzd-4GA-25" style="edgeStyle=orthogonalEdgeStyle;rounded=0;jumpStyle=none;jumpSize=6;orthogonalLoop=1;jettySize=auto;html=1;entryX=0;entryY=0.5;entryDx=0;entryDy=0;startArrow=none;startFill=0;endArrow=classic;endFill=1;startSize=1;endSize=1;strokeColor=#000000;strokeWidth=5;" parent="1" source="ybkfhQOrvzYeeOzd-4GA-26" target="ybkfhQOrvzYeeOzd-4GA-58" edge="1">
                    <mxGeometry relative="1" as="geometry"/>
                </mxCell>
                <mxCell id="ybkfhQOrvzYeeOzd-4GA-26" value="" style="ellipse;whiteSpace=wrap;html=1;aspect=fixed;fillColor=#e1d5e7;strokeColor=#000000;strokeWidth=5;" parent="1" vertex="1">
                    <mxGeometry x="794.6700000000001" y="329.84000000000015" width="40" height="40" as="geometry"/>
                </mxCell>
                <mxCell id="ybkfhQOrvzYeeOzd-4GA-27" value="" style="endArrow=none;html=1;rounded=0;strokeColor=#000000;entryX=0.5;entryY=0;entryDx=0;entryDy=0;exitX=0.5;exitY=1;exitDx=0;exitDy=0;strokeWidth=5;" parent="1" source="ybkfhQOrvzYeeOzd-4GA-26" target="ybkfhQOrvzYeeOzd-4GA-26" edge="1">
                    <mxGeometry width="50" height="50" relative="1" as="geometry">
                        <mxPoint x="794.6700000000001" y="284.34000000000003" as="sourcePoint"/>
                        <mxPoint x="844.6700000000001" y="234.34000000000003" as="targetPoint"/>
                    </mxGeometry>
                </mxCell>
                <mxCell id="ybkfhQOrvzYeeOzd-4GA-28" value="" style="endArrow=none;html=1;rounded=0;strokeColor=#000000;entryX=0;entryY=0.5;entryDx=0;entryDy=0;exitX=1;exitY=0.5;exitDx=0;exitDy=0;strokeWidth=5;" parent="1" source="ybkfhQOrvzYeeOzd-4GA-26" target="ybkfhQOrvzYeeOzd-4GA-26" edge="1">
                    <mxGeometry width="50" height="50" relative="1" as="geometry">
                        <mxPoint x="844.6700000000001" y="184.34000000000003" as="sourcePoint"/>
                        <mxPoint x="844.6700000000001" y="124.34000000000003" as="targetPoint"/>
                    </mxGeometry>
                </mxCell>
                <mxCell id="ybkfhQOrvzYeeOzd-4GA-29" style="edgeStyle=orthogonalEdgeStyle;rounded=0;jumpStyle=none;jumpSize=6;orthogonalLoop=1;jettySize=auto;html=1;entryX=0;entryY=0.5;entryDx=0;entryDy=0;startArrow=none;startFill=0;endArrow=classic;endFill=1;startSize=1;endSize=1;strokeColor=#000000;strokeWidth=5;" parent="1" source="ybkfhQOrvzYeeOzd-4GA-30" target="ybkfhQOrvzYeeOzd-4GA-22" edge="1">
                    <mxGeometry relative="1" as="geometry">
                        <Array as="points">
                            <mxPoint x="780.8299999999999" y="211.84000000000003"/>
                        </Array>
                    </mxGeometry>
                </mxCell>
                <mxCell id="ybkfhQOrvzYeeOzd-4GA-30" value="" style="whiteSpace=wrap;html=1;aspect=fixed;fillColor=#dae8fc;strokeColor=#000000;strokeWidth=5;" parent="1" vertex="1">
                    <mxGeometry x="767.17" y="234.34000000000003" width="27.5" height="27.5" as="geometry"/>
                </mxCell>
                <mxCell id="ybkfhQOrvzYeeOzd-4GA-31" style="edgeStyle=orthogonalEdgeStyle;rounded=0;jumpStyle=none;jumpSize=6;orthogonalLoop=1;jettySize=auto;html=1;entryX=0.5;entryY=0;entryDx=0;entryDy=0;startArrow=none;startFill=0;endArrow=classic;endFill=1;startSize=1;endSize=1;strokeColor=#000000;strokeWidth=5;" parent="1" source="ybkfhQOrvzYeeOzd-4GA-32" target="ybkfhQOrvzYeeOzd-4GA-39" edge="1">
                    <mxGeometry relative="1" as="geometry"/>
                </mxCell>
                <mxCell id="ybkfhQOrvzYeeOzd-4GA-32" value="" style="ellipse;whiteSpace=wrap;html=1;aspect=fixed;fillColor=#67AB9F;strokeWidth=5;strokeColor=#000000;" parent="1" vertex="1">
                    <mxGeometry x="892.51" y="194.34000000000003" width="40" height="40" as="geometry"/>
                </mxCell>
                <mxCell id="ybkfhQOrvzYeeOzd-4GA-33" value="" style="endArrow=none;html=1;rounded=0;strokeColor=#000000;strokeWidth=5;exitX=0;exitY=0;exitDx=0;exitDy=0;entryX=1;entryY=1;entryDx=0;entryDy=0;" parent="1" source="ybkfhQOrvzYeeOzd-4GA-32" target="ybkfhQOrvzYeeOzd-4GA-32" edge="1">
                    <mxGeometry width="50" height="50" relative="1" as="geometry">
                        <mxPoint x="897.51" y="226.09000000000003" as="sourcePoint"/>
                        <mxPoint x="922.51" y="194.84000000000003" as="targetPoint"/>
                    </mxGeometry>
                </mxCell>
                <mxCell id="ybkfhQOrvzYeeOzd-4GA-34" value="" style="endArrow=none;html=1;rounded=0;strokeColor=#000000;strokeWidth=5;exitX=0;exitY=1;exitDx=0;exitDy=0;entryX=1;entryY=0;entryDx=0;entryDy=0;" parent="1" source="ybkfhQOrvzYeeOzd-4GA-32" target="ybkfhQOrvzYeeOzd-4GA-32" edge="1">
                    <mxGeometry width="50" height="50" relative="1" as="geometry">
                        <mxPoint x="853.3678643762692" y="170.91233047033631" as="sourcePoint"/>
                        <mxPoint x="881.821484117605" y="206.05341811969663" as="targetPoint"/>
                    </mxGeometry>
                </mxCell>
                <mxCell id="ybkfhQOrvzYeeOzd-4GA-35" style="edgeStyle=orthogonalEdgeStyle;rounded=0;jumpStyle=none;jumpSize=6;orthogonalLoop=1;jettySize=auto;html=1;entryX=0;entryY=0.5;entryDx=0;entryDy=0;startArrow=none;startFill=0;endArrow=classic;endFill=1;startSize=1;endSize=1;strokeColor=#000000;strokeWidth=5;" parent="1" source="ybkfhQOrvzYeeOzd-4GA-36" target="ybkfhQOrvzYeeOzd-4GA-32" edge="1">
                    <mxGeometry relative="1" as="geometry"/>
                </mxCell>
                <mxCell id="ybkfhQOrvzYeeOzd-4GA-36" value="" style="whiteSpace=wrap;html=1;aspect=fixed;fillColor=#dae8fc;strokeColor=#000000;strokeWidth=5;" parent="1" vertex="1">
                    <mxGeometry x="865.01" y="234.34000000000003" width="27.5" height="27.5" as="geometry"/>
                </mxCell>
                <mxCell id="ybkfhQOrvzYeeOzd-4GA-37" style="edgeStyle=orthogonalEdgeStyle;rounded=0;jumpStyle=none;jumpSize=6;orthogonalLoop=1;jettySize=auto;html=1;startArrow=none;startFill=0;endArrow=classic;endFill=1;startSize=1;endSize=1;strokeColor=#000000;strokeWidth=5;" parent="1" edge="1">
                    <mxGeometry relative="1" as="geometry">
                        <mxPoint x="993.7700000000004" y="349.84000000000015" as="targetPoint"/>
                        <mxPoint x="972.6099895876696" y="349.8604081632657" as="sourcePoint"/>
                    </mxGeometry>
                </mxCell>
                <mxCell id="ybkfhQOrvzYeeOzd-4GA-38" style="edgeStyle=orthogonalEdgeStyle;rounded=0;jumpStyle=none;jumpSize=6;orthogonalLoop=1;jettySize=auto;html=1;entryX=-0.007;entryY=0.555;entryDx=0;entryDy=0;entryPerimeter=0;startArrow=none;startFill=0;endArrow=classic;endFill=1;startSize=1;endSize=1;strokeColor=#000000;strokeWidth=5;" parent="1" source="ybkfhQOrvzYeeOzd-4GA-39" target="ybkfhQOrvzYeeOzd-4GA-52" edge="1">
                    <mxGeometry relative="1" as="geometry"/>
                </mxCell>
                <mxCell id="ybkfhQOrvzYeeOzd-4GA-39" value="" style="ellipse;whiteSpace=wrap;html=1;aspect=fixed;fillColor=#e1d5e7;strokeColor=#000000;strokeWidth=5;" parent="1" vertex="1">
                    <mxGeometry x="892.51" y="329.84000000000015" width="40" height="40" as="geometry"/>
                </mxCell>
                <mxCell id="ybkfhQOrvzYeeOzd-4GA-40" value="" style="endArrow=none;html=1;rounded=0;strokeColor=#000000;entryX=0.5;entryY=0;entryDx=0;entryDy=0;exitX=0.5;exitY=1;exitDx=0;exitDy=0;strokeWidth=5;" parent="1" source="ybkfhQOrvzYeeOzd-4GA-39" target="ybkfhQOrvzYeeOzd-4GA-39" edge="1">
                    <mxGeometry width="50" height="50" relative="1" as="geometry">
                        <mxPoint x="892.51" y="284.34000000000003" as="sourcePoint"/>
                        <mxPoint x="942.51" y="234.34000000000003" as="targetPoint"/>
                    </mxGeometry>
                </mxCell>
                <mxCell id="ybkfhQOrvzYeeOzd-4GA-41" value="" style="endArrow=none;html=1;rounded=0;strokeColor=#000000;entryX=0;entryY=0.5;entryDx=0;entryDy=0;exitX=1;exitY=0.5;exitDx=0;exitDy=0;strokeWidth=5;" parent="1" source="ybkfhQOrvzYeeOzd-4GA-39" target="ybkfhQOrvzYeeOzd-4GA-39" edge="1">
                    <mxGeometry width="50" height="50" relative="1" as="geometry">
                        <mxPoint x="942.51" y="184.34000000000003" as="sourcePoint"/>
                        <mxPoint x="942.51" y="124.34000000000003" as="targetPoint"/>
                    </mxGeometry>
                </mxCell>
                <mxCell id="ybkfhQOrvzYeeOzd-4GA-42" style="edgeStyle=orthogonalEdgeStyle;rounded=0;jumpStyle=none;jumpSize=6;orthogonalLoop=1;jettySize=auto;html=1;entryX=0.5;entryY=0;entryDx=0;entryDy=0;startArrow=none;startFill=0;endArrow=classic;endFill=1;startSize=1;endSize=1;strokeColor=#000000;strokeWidth=5;" parent="1" source="ybkfhQOrvzYeeOzd-4GA-43" target="ybkfhQOrvzYeeOzd-4GA-49" edge="1">
                    <mxGeometry relative="1" as="geometry"/>
                </mxCell>
                <mxCell id="ybkfhQOrvzYeeOzd-4GA-43" value="" style="ellipse;whiteSpace=wrap;html=1;aspect=fixed;fillColor=#67AB9F;strokeWidth=5;strokeColor=#000000;" parent="1" vertex="1">
                    <mxGeometry x="992.1" y="194.34000000000003" width="40" height="40" as="geometry"/>
                </mxCell>
                <mxCell id="ybkfhQOrvzYeeOzd-4GA-44" value="" style="endArrow=none;html=1;rounded=0;strokeColor=#000000;strokeWidth=5;exitX=0;exitY=0;exitDx=0;exitDy=0;entryX=1;entryY=1;entryDx=0;entryDy=0;" parent="1" source="ybkfhQOrvzYeeOzd-4GA-43" target="ybkfhQOrvzYeeOzd-4GA-43" edge="1">
                    <mxGeometry width="50" height="50" relative="1" as="geometry">
                        <mxPoint x="997.1" y="226.09000000000003" as="sourcePoint"/>
                        <mxPoint x="1022.1" y="194.84000000000003" as="targetPoint"/>
                    </mxGeometry>
                </mxCell>
                <mxCell id="ybkfhQOrvzYeeOzd-4GA-45" value="" style="endArrow=none;html=1;rounded=0;strokeColor=#000000;strokeWidth=5;exitX=0;exitY=1;exitDx=0;exitDy=0;entryX=1;entryY=0;entryDx=0;entryDy=0;" parent="1" source="ybkfhQOrvzYeeOzd-4GA-43" target="ybkfhQOrvzYeeOzd-4GA-43" edge="1">
                    <mxGeometry width="50" height="50" relative="1" as="geometry">
                        <mxPoint x="952.9578643762692" y="170.91233047033631" as="sourcePoint"/>
                        <mxPoint x="981.411484117605" y="206.05341811969663" as="targetPoint"/>
                    </mxGeometry>
                </mxCell>
                <mxCell id="ybkfhQOrvzYeeOzd-4GA-46" style="edgeStyle=orthogonalEdgeStyle;rounded=0;jumpStyle=none;jumpSize=6;orthogonalLoop=1;jettySize=auto;html=1;entryX=0;entryY=0.5;entryDx=0;entryDy=0;startArrow=none;startFill=0;endArrow=classic;endFill=1;startSize=1;endSize=1;strokeColor=#000000;strokeWidth=5;" parent="1" source="ybkfhQOrvzYeeOzd-4GA-47" target="ybkfhQOrvzYeeOzd-4GA-43" edge="1">
                    <mxGeometry relative="1" as="geometry"/>
                </mxCell>
                <mxCell id="ybkfhQOrvzYeeOzd-4GA-47" value="" style="whiteSpace=wrap;html=1;aspect=fixed;fillColor=#dae8fc;strokeColor=#000000;strokeWidth=5;" parent="1" vertex="1">
                    <mxGeometry x="964.6" y="234.34000000000003" width="27.5" height="27.5" as="geometry"/>
                </mxCell>
                <mxCell id="ybkfhQOrvzYeeOzd-4GA-48" style="edgeStyle=orthogonalEdgeStyle;rounded=0;jumpStyle=none;jumpSize=6;orthogonalLoop=1;jettySize=auto;html=1;entryX=0;entryY=0.5;entryDx=0;entryDy=0;startArrow=none;startFill=0;endArrow=classic;endFill=1;startSize=1;endSize=1;strokeColor=#000000;strokeWidth=5;" parent="1" source="ybkfhQOrvzYeeOzd-4GA-49" target="ybkfhQOrvzYeeOzd-4GA-110" edge="1">
                    <mxGeometry relative="1" as="geometry"/>
                </mxCell>
                <mxCell id="ybkfhQOrvzYeeOzd-4GA-49" value="" style="ellipse;whiteSpace=wrap;html=1;aspect=fixed;fillColor=#e1d5e7;strokeColor=#000000;strokeWidth=5;" parent="1" vertex="1">
                    <mxGeometry x="992.27" y="329.84000000000015" width="40" height="40" as="geometry"/>
                </mxCell>
                <mxCell id="ybkfhQOrvzYeeOzd-4GA-50" value="" style="endArrow=none;html=1;rounded=0;strokeColor=#000000;entryX=0.5;entryY=0;entryDx=0;entryDy=0;exitX=0.5;exitY=1;exitDx=0;exitDy=0;strokeWidth=5;" parent="1" source="ybkfhQOrvzYeeOzd-4GA-49" target="ybkfhQOrvzYeeOzd-4GA-49" edge="1">
                    <mxGeometry width="50" height="50" relative="1" as="geometry">
                        <mxPoint x="992.27" y="304.84000000000003" as="sourcePoint"/>
                        <mxPoint x="1042.27" y="254.84000000000003" as="targetPoint"/>
                    </mxGeometry>
                </mxCell>
                <mxCell id="ybkfhQOrvzYeeOzd-4GA-51" value="" style="endArrow=none;html=1;rounded=0;strokeColor=#000000;entryX=0;entryY=0.5;entryDx=0;entryDy=0;exitX=1;exitY=0.5;exitDx=0;exitDy=0;strokeWidth=5;" parent="1" source="ybkfhQOrvzYeeOzd-4GA-49" target="ybkfhQOrvzYeeOzd-4GA-49" edge="1">
                    <mxGeometry width="50" height="50" relative="1" as="geometry">
                        <mxPoint x="1042.27" y="204.84000000000003" as="sourcePoint"/>
                        <mxPoint x="1042.27" y="144.84000000000003" as="targetPoint"/>
                    </mxGeometry>
                </mxCell>
                <mxCell id="ybkfhQOrvzYeeOzd-4GA-52" value="" style="rounded=0;whiteSpace=wrap;html=1;glass=0;strokeColor=#000000;strokeWidth=5;fillColor=#FFD966;" parent="1" vertex="1">
                    <mxGeometry x="954.6" y="329.84000000000015" width="20" height="36" as="geometry"/>
                </mxCell>
                <mxCell id="ybkfhQOrvzYeeOzd-4GA-53" value="" style="endArrow=none;html=1;rounded=0;startSize=1;endSize=1;strokeColor=#000000;strokeWidth=5;jumpStyle=none;jumpSize=6;" parent="1" edge="1">
                    <mxGeometry width="50" height="50" relative="1" as="geometry">
                        <mxPoint x="954.6000000000004" y="366.34000000000106" as="sourcePoint"/>
                        <mxPoint x="964.6000000000004" y="355.84000000000015" as="targetPoint"/>
                    </mxGeometry>
                </mxCell>
                <mxCell id="ybkfhQOrvzYeeOzd-4GA-54" value="" style="endArrow=none;html=1;rounded=0;startSize=1;endSize=1;strokeColor=#000000;strokeWidth=5;jumpStyle=none;jumpSize=6;" parent="1" edge="1">
                    <mxGeometry width="50" height="50" relative="1" as="geometry">
                        <mxPoint x="964.6000000000004" y="355.84000000000015" as="sourcePoint"/>
                        <mxPoint x="974.6000000000004" y="365.84000000000015" as="targetPoint"/>
                    </mxGeometry>
                </mxCell>
                <mxCell id="ybkfhQOrvzYeeOzd-4GA-56" style="edgeStyle=orthogonalEdgeStyle;rounded=0;jumpStyle=none;jumpSize=6;orthogonalLoop=1;jettySize=auto;html=1;entryX=0.5;entryY=0;entryDx=0;entryDy=0;startArrow=none;startFill=0;endArrow=classic;endFill=1;startSize=1;endSize=1;strokeColor=#000000;strokeWidth=5;exitX=0.5;exitY=0;exitDx=0;exitDy=0;" parent="1" source="22" target="ybkfhQOrvzYeeOzd-4GA-22" edge="1">
                    <mxGeometry relative="1" as="geometry">
                        <mxPoint x="814.2857142857138" y="99.84000000000015" as="sourcePoint"/>
                    </mxGeometry>
                </mxCell>
                <mxCell id="ybkfhQOrvzYeeOzd-4GA-57" style="edgeStyle=orthogonalEdgeStyle;rounded=0;jumpStyle=none;jumpSize=6;orthogonalLoop=1;jettySize=auto;html=1;entryX=0;entryY=0.5;entryDx=0;entryDy=0;startArrow=none;startFill=0;endArrow=classic;endFill=1;startSize=1;endSize=1;strokeColor=#000000;strokeWidth=5;" parent="1" source="ybkfhQOrvzYeeOzd-4GA-58" target="ybkfhQOrvzYeeOzd-4GA-39" edge="1">
                    <mxGeometry relative="1" as="geometry">
                        <Array as="points">
                            <mxPoint x="884.6" y="349.84000000000015"/>
                        </Array>
                    </mxGeometry>
                </mxCell>
                <mxCell id="ybkfhQOrvzYeeOzd-4GA-58" value="" style="rounded=0;whiteSpace=wrap;html=1;glass=0;strokeColor=#000000;strokeWidth=5;fillColor=#FFD966;" parent="1" vertex="1">
                    <mxGeometry x="854.6" y="331.59000000000015" width="20" height="36" as="geometry"/>
                </mxCell>
                <mxCell id="ybkfhQOrvzYeeOzd-4GA-59" value="" style="endArrow=none;html=1;rounded=0;startSize=1;endSize=1;strokeColor=#000000;strokeWidth=5;jumpStyle=none;jumpSize=6;" parent="1" edge="1">
                    <mxGeometry width="50" height="50" relative="1" as="geometry">
                        <mxPoint x="854.6000000000004" y="368.09000000000015" as="sourcePoint"/>
                        <mxPoint x="864.6000000000004" y="357.59000000000106" as="targetPoint"/>
                    </mxGeometry>
                </mxCell>
                <mxCell id="ybkfhQOrvzYeeOzd-4GA-60" value="" style="endArrow=none;html=1;rounded=0;startSize=1;endSize=1;strokeColor=#000000;strokeWidth=5;jumpStyle=none;jumpSize=6;" parent="1" edge="1">
                    <mxGeometry width="50" height="50" relative="1" as="geometry">
                        <mxPoint x="864.6000000000004" y="357.59000000000106" as="sourcePoint"/>
                        <mxPoint x="874.6000000000004" y="367.59000000000106" as="targetPoint"/>
                    </mxGeometry>
                </mxCell>
                <mxCell id="ybkfhQOrvzYeeOzd-4GA-61" style="edgeStyle=orthogonalEdgeStyle;rounded=1;jumpStyle=none;jumpSize=6;orthogonalLoop=1;jettySize=auto;html=1;startArrow=none;startFill=0;endArrow=classic;endFill=1;startSize=1;endSize=1;strokeColor=#000000;strokeWidth=5;exitX=0.5;exitY=1;exitDx=0;exitDy=0;" parent="1" source="ybkfhQOrvzYeeOzd-4GA-66" edge="1">
                    <mxGeometry relative="1" as="geometry">
                        <Array as="points">
                            <mxPoint x="915" y="-116"/>
                        </Array>
                        <mxPoint x="1039.521064112796" y="-66" as="sourcePoint"/>
                        <mxPoint x="915" y="50" as="targetPoint"/>
                    </mxGeometry>
                </mxCell>
                <mxCell id="ybkfhQOrvzYeeOzd-4GA-66" value="&lt;span style=&quot;font-family: &amp;#34;arial unicode ms&amp;#34; , &amp;#34;lucida sans unicode&amp;#34; , sans-serif ; font-size: 34px&quot;&gt;Δ(L-3)&lt;/span&gt;" style="whiteSpace=wrap;html=1;aspect=fixed;fillColor=#fff2cc;strokeColor=#000000;rotation=90;strokeWidth=5;horizontal=0;" parent="1" vertex="1">
                    <mxGeometry x="1405" y="-166" width="100" height="100" as="geometry"/>
                </mxCell>
                <mxCell id="ybkfhQOrvzYeeOzd-4GA-68" style="edgeStyle=orthogonalEdgeStyle;rounded=0;jumpStyle=none;jumpSize=6;orthogonalLoop=1;jettySize=auto;html=1;startArrow=none;startFill=0;endArrow=classic;endFill=1;startSize=1;endSize=1;strokeColor=#000000;strokeWidth=5;entryX=0.5;entryY=0;entryDx=0;entryDy=0;" parent="1" source="ybkfhQOrvzYeeOzd-4GA-69" target="ybkfhQOrvzYeeOzd-4GA-73" edge="1">
                    <mxGeometry relative="1" as="geometry">
                        <mxPoint x="1565.6599999999999" y="259.84000000000003" as="targetPoint"/>
                        <Array as="points"/>
                    </mxGeometry>
                </mxCell>
                <mxCell id="ybkfhQOrvzYeeOzd-4GA-69" value="" style="ellipse;whiteSpace=wrap;html=1;aspect=fixed;fillColor=#67AB9F;strokeWidth=5;strokeColor=#000000;" parent="1" vertex="1">
                    <mxGeometry x="1534.67" y="195.59000000000003" width="40" height="40" as="geometry"/>
                </mxCell>
                <mxCell id="ybkfhQOrvzYeeOzd-4GA-70" value="" style="endArrow=none;html=1;rounded=0;strokeColor=#000000;strokeWidth=5;exitX=0;exitY=0;exitDx=0;exitDy=0;entryX=1;entryY=1;entryDx=0;entryDy=0;" parent="1" source="ybkfhQOrvzYeeOzd-4GA-69" target="ybkfhQOrvzYeeOzd-4GA-69" edge="1">
                    <mxGeometry width="50" height="50" relative="1" as="geometry">
                        <mxPoint x="1589.67" y="247.34000000000003" as="sourcePoint"/>
                        <mxPoint x="1614.67" y="216.09000000000003" as="targetPoint"/>
                    </mxGeometry>
                </mxCell>
                <mxCell id="ybkfhQOrvzYeeOzd-4GA-71" value="" style="endArrow=none;html=1;rounded=0;strokeColor=#000000;strokeWidth=5;exitX=0;exitY=1;exitDx=0;exitDy=0;entryX=1;entryY=0;entryDx=0;entryDy=0;" parent="1" source="ybkfhQOrvzYeeOzd-4GA-69" target="ybkfhQOrvzYeeOzd-4GA-69" edge="1">
                    <mxGeometry width="50" height="50" relative="1" as="geometry">
                        <mxPoint x="1545.527864376269" y="192.16233047033631" as="sourcePoint"/>
                        <mxPoint x="1573.9814841176049" y="227.30341811969663" as="targetPoint"/>
                    </mxGeometry>
                </mxCell>
                <mxCell id="ybkfhQOrvzYeeOzd-4GA-72" style="edgeStyle=orthogonalEdgeStyle;rounded=0;jumpStyle=none;jumpSize=6;orthogonalLoop=1;jettySize=auto;html=1;entryX=0;entryY=0.5;entryDx=0;entryDy=0;startArrow=none;startFill=0;endArrow=classic;endFill=1;startSize=1;endSize=1;strokeColor=#000000;strokeWidth=5;" parent="1" source="ybkfhQOrvzYeeOzd-4GA-73" target="ybkfhQOrvzYeeOzd-4GA-105" edge="1">
                    <mxGeometry relative="1" as="geometry"/>
                </mxCell>
                <mxCell id="ybkfhQOrvzYeeOzd-4GA-73" value="" style="ellipse;whiteSpace=wrap;html=1;aspect=fixed;fillColor=#e1d5e7;strokeColor=#000000;strokeWidth=5;" parent="1" vertex="1">
                    <mxGeometry x="1534.67" y="329.84000000000015" width="40" height="40" as="geometry"/>
                </mxCell>
                <mxCell id="ybkfhQOrvzYeeOzd-4GA-74" value="" style="endArrow=none;html=1;rounded=0;strokeColor=#000000;entryX=0.5;entryY=0;entryDx=0;entryDy=0;exitX=0.5;exitY=1;exitDx=0;exitDy=0;strokeWidth=5;" parent="1" source="ybkfhQOrvzYeeOzd-4GA-73" target="ybkfhQOrvzYeeOzd-4GA-73" edge="1">
                    <mxGeometry width="50" height="50" relative="1" as="geometry">
                        <mxPoint x="1534.67" y="284.34000000000003" as="sourcePoint"/>
                        <mxPoint x="1584.67" y="234.34000000000003" as="targetPoint"/>
                    </mxGeometry>
                </mxCell>
                <mxCell id="ybkfhQOrvzYeeOzd-4GA-75" value="" style="endArrow=none;html=1;rounded=0;strokeColor=#000000;entryX=0;entryY=0.5;entryDx=0;entryDy=0;exitX=1;exitY=0.5;exitDx=0;exitDy=0;strokeWidth=5;" parent="1" source="ybkfhQOrvzYeeOzd-4GA-73" target="ybkfhQOrvzYeeOzd-4GA-73" edge="1">
                    <mxGeometry width="50" height="50" relative="1" as="geometry">
                        <mxPoint x="1584.67" y="184.34000000000003" as="sourcePoint"/>
                        <mxPoint x="1584.67" y="124.34000000000003" as="targetPoint"/>
                    </mxGeometry>
                </mxCell>
                <mxCell id="ybkfhQOrvzYeeOzd-4GA-76" style="edgeStyle=orthogonalEdgeStyle;rounded=0;jumpStyle=none;jumpSize=6;orthogonalLoop=1;jettySize=auto;html=1;entryX=0;entryY=0.5;entryDx=0;entryDy=0;startArrow=none;startFill=0;endArrow=classic;endFill=1;startSize=1;endSize=1;strokeColor=#000000;strokeWidth=5;" parent="1" source="ybkfhQOrvzYeeOzd-4GA-77" target="ybkfhQOrvzYeeOzd-4GA-69" edge="1">
                    <mxGeometry relative="1" as="geometry">
                        <Array as="points">
                            <mxPoint x="1520.83" y="215.59000000000003"/>
                        </Array>
                    </mxGeometry>
                </mxCell>
                <mxCell id="ybkfhQOrvzYeeOzd-4GA-77" value="" style="whiteSpace=wrap;html=1;aspect=fixed;fillColor=#dae8fc;strokeColor=#000000;strokeWidth=5;" parent="1" vertex="1">
                    <mxGeometry x="1507.17" y="238.09000000000003" width="27.5" height="27.5" as="geometry"/>
                </mxCell>
                <mxCell id="ybkfhQOrvzYeeOzd-4GA-78" style="edgeStyle=orthogonalEdgeStyle;rounded=0;jumpStyle=none;jumpSize=6;orthogonalLoop=1;jettySize=auto;html=1;entryX=0.5;entryY=0;entryDx=0;entryDy=0;startArrow=none;startFill=0;endArrow=classic;endFill=1;startSize=1;endSize=1;strokeColor=#000000;strokeWidth=5;" parent="1" source="ybkfhQOrvzYeeOzd-4GA-79" target="ybkfhQOrvzYeeOzd-4GA-86" edge="1">
                    <mxGeometry relative="1" as="geometry"/>
                </mxCell>
                <mxCell id="ybkfhQOrvzYeeOzd-4GA-79" value="" style="ellipse;whiteSpace=wrap;html=1;aspect=fixed;fillColor=#67AB9F;strokeWidth=5;strokeColor=#000000;" parent="1" vertex="1">
                    <mxGeometry x="1632.51" y="195.59000000000003" width="40" height="40" as="geometry"/>
                </mxCell>
                <mxCell id="ybkfhQOrvzYeeOzd-4GA-80" value="" style="endArrow=none;html=1;rounded=0;strokeColor=#000000;strokeWidth=5;exitX=0;exitY=0;exitDx=0;exitDy=0;entryX=1;entryY=1;entryDx=0;entryDy=0;" parent="1" source="ybkfhQOrvzYeeOzd-4GA-79" target="ybkfhQOrvzYeeOzd-4GA-79" edge="1">
                    <mxGeometry width="50" height="50" relative="1" as="geometry">
                        <mxPoint x="1637.51" y="227.34000000000003" as="sourcePoint"/>
                        <mxPoint x="1662.51" y="196.09000000000003" as="targetPoint"/>
                    </mxGeometry>
                </mxCell>
                <mxCell id="ybkfhQOrvzYeeOzd-4GA-81" value="" style="endArrow=none;html=1;rounded=0;strokeColor=#000000;strokeWidth=5;exitX=0;exitY=1;exitDx=0;exitDy=0;entryX=1;entryY=0;entryDx=0;entryDy=0;" parent="1" source="ybkfhQOrvzYeeOzd-4GA-79" target="ybkfhQOrvzYeeOzd-4GA-79" edge="1">
                    <mxGeometry width="50" height="50" relative="1" as="geometry">
                        <mxPoint x="1593.3678643762692" y="172.16233047033631" as="sourcePoint"/>
                        <mxPoint x="1621.821484117605" y="207.30341811969663" as="targetPoint"/>
                    </mxGeometry>
                </mxCell>
                <mxCell id="ybkfhQOrvzYeeOzd-4GA-82" style="edgeStyle=orthogonalEdgeStyle;rounded=0;jumpStyle=none;jumpSize=6;orthogonalLoop=1;jettySize=auto;html=1;entryX=0;entryY=0.5;entryDx=0;entryDy=0;startArrow=none;startFill=0;endArrow=classic;endFill=1;startSize=1;endSize=1;strokeColor=#000000;strokeWidth=5;" parent="1" source="ybkfhQOrvzYeeOzd-4GA-83" target="ybkfhQOrvzYeeOzd-4GA-79" edge="1">
                    <mxGeometry relative="1" as="geometry"/>
                </mxCell>
                <mxCell id="ybkfhQOrvzYeeOzd-4GA-83" value="" style="whiteSpace=wrap;html=1;aspect=fixed;fillColor=#dae8fc;strokeColor=#000000;strokeWidth=5;" parent="1" vertex="1">
                    <mxGeometry x="1605.0099999999998" y="235.59000000000003" width="27.5" height="27.5" as="geometry"/>
                </mxCell>
                <mxCell id="ybkfhQOrvzYeeOzd-4GA-84" style="edgeStyle=orthogonalEdgeStyle;rounded=0;jumpStyle=none;jumpSize=6;orthogonalLoop=1;jettySize=auto;html=1;startArrow=none;startFill=0;endArrow=classic;endFill=1;startSize=1;endSize=1;strokeColor=#000000;strokeWidth=5;" parent="1" edge="1">
                    <mxGeometry relative="1" as="geometry">
                        <mxPoint x="1733.7700000000004" y="349.84000000000015" as="targetPoint"/>
                        <mxPoint x="1712.6099895876696" y="349.8604081632657" as="sourcePoint"/>
                    </mxGeometry>
                </mxCell>
                <mxCell id="ybkfhQOrvzYeeOzd-4GA-85" style="edgeStyle=orthogonalEdgeStyle;rounded=0;jumpStyle=none;jumpSize=6;orthogonalLoop=1;jettySize=auto;html=1;entryX=-0.007;entryY=0.555;entryDx=0;entryDy=0;entryPerimeter=0;startArrow=none;startFill=0;endArrow=classic;endFill=1;startSize=1;endSize=1;strokeColor=#000000;strokeWidth=5;" parent="1" source="ybkfhQOrvzYeeOzd-4GA-86" target="ybkfhQOrvzYeeOzd-4GA-99" edge="1">
                    <mxGeometry relative="1" as="geometry"/>
                </mxCell>
                <mxCell id="ybkfhQOrvzYeeOzd-4GA-86" value="" style="ellipse;whiteSpace=wrap;html=1;aspect=fixed;fillColor=#e1d5e7;strokeColor=#000000;strokeWidth=5;" parent="1" vertex="1">
                    <mxGeometry x="1632.51" y="329.84000000000015" width="40" height="40" as="geometry"/>
                </mxCell>
                <mxCell id="ybkfhQOrvzYeeOzd-4GA-87" value="" style="endArrow=none;html=1;rounded=0;strokeColor=#000000;entryX=0.5;entryY=0;entryDx=0;entryDy=0;exitX=0.5;exitY=1;exitDx=0;exitDy=0;strokeWidth=5;" parent="1" source="ybkfhQOrvzYeeOzd-4GA-86" target="ybkfhQOrvzYeeOzd-4GA-86" edge="1">
                    <mxGeometry width="50" height="50" relative="1" as="geometry">
                        <mxPoint x="1632.51" y="284.34000000000003" as="sourcePoint"/>
                        <mxPoint x="1682.51" y="234.34000000000003" as="targetPoint"/>
                    </mxGeometry>
                </mxCell>
                <mxCell id="ybkfhQOrvzYeeOzd-4GA-88" value="" style="endArrow=none;html=1;rounded=0;strokeColor=#000000;entryX=0;entryY=0.5;entryDx=0;entryDy=0;exitX=1;exitY=0.5;exitDx=0;exitDy=0;strokeWidth=5;" parent="1" source="ybkfhQOrvzYeeOzd-4GA-86" target="ybkfhQOrvzYeeOzd-4GA-86" edge="1">
                    <mxGeometry width="50" height="50" relative="1" as="geometry">
                        <mxPoint x="1682.51" y="184.34000000000003" as="sourcePoint"/>
                        <mxPoint x="1682.51" y="124.34000000000003" as="targetPoint"/>
                    </mxGeometry>
                </mxCell>
                <mxCell id="ybkfhQOrvzYeeOzd-4GA-89" style="edgeStyle=orthogonalEdgeStyle;rounded=0;jumpStyle=none;jumpSize=6;orthogonalLoop=1;jettySize=auto;html=1;entryX=0.5;entryY=0;entryDx=0;entryDy=0;startArrow=none;startFill=0;endArrow=classic;endFill=1;startSize=1;endSize=1;strokeColor=#000000;strokeWidth=5;" parent="1" source="ybkfhQOrvzYeeOzd-4GA-90" target="ybkfhQOrvzYeeOzd-4GA-96" edge="1">
                    <mxGeometry relative="1" as="geometry"/>
                </mxCell>
                <mxCell id="ybkfhQOrvzYeeOzd-4GA-90" value="" style="ellipse;whiteSpace=wrap;html=1;aspect=fixed;fillColor=#67AB9F;strokeWidth=5;strokeColor=#000000;" parent="1" vertex="1">
                    <mxGeometry x="1732.1" y="194.34000000000003" width="40" height="40" as="geometry"/>
                </mxCell>
                <mxCell id="ybkfhQOrvzYeeOzd-4GA-91" value="" style="endArrow=none;html=1;rounded=0;strokeColor=#000000;strokeWidth=5;exitX=0;exitY=0;exitDx=0;exitDy=0;entryX=1;entryY=1;entryDx=0;entryDy=0;" parent="1" source="ybkfhQOrvzYeeOzd-4GA-90" target="ybkfhQOrvzYeeOzd-4GA-90" edge="1">
                    <mxGeometry width="50" height="50" relative="1" as="geometry">
                        <mxPoint x="1737.1" y="226.09000000000003" as="sourcePoint"/>
                        <mxPoint x="1762.1" y="194.84000000000003" as="targetPoint"/>
                    </mxGeometry>
                </mxCell>
                <mxCell id="ybkfhQOrvzYeeOzd-4GA-92" value="" style="endArrow=none;html=1;rounded=0;strokeColor=#000000;strokeWidth=5;exitX=0;exitY=1;exitDx=0;exitDy=0;entryX=1;entryY=0;entryDx=0;entryDy=0;" parent="1" source="ybkfhQOrvzYeeOzd-4GA-90" target="ybkfhQOrvzYeeOzd-4GA-90" edge="1">
                    <mxGeometry width="50" height="50" relative="1" as="geometry">
                        <mxPoint x="1692.9578643762693" y="170.91233047033631" as="sourcePoint"/>
                        <mxPoint x="1721.4114841176051" y="206.05341811969663" as="targetPoint"/>
                    </mxGeometry>
                </mxCell>
                <mxCell id="ybkfhQOrvzYeeOzd-4GA-93" style="edgeStyle=orthogonalEdgeStyle;rounded=0;jumpStyle=none;jumpSize=6;orthogonalLoop=1;jettySize=auto;html=1;entryX=0;entryY=0.5;entryDx=0;entryDy=0;startArrow=none;startFill=0;endArrow=classic;endFill=1;startSize=1;endSize=1;strokeColor=#000000;strokeWidth=5;" parent="1" source="ybkfhQOrvzYeeOzd-4GA-94" target="ybkfhQOrvzYeeOzd-4GA-90" edge="1">
                    <mxGeometry relative="1" as="geometry"/>
                </mxCell>
                <mxCell id="ybkfhQOrvzYeeOzd-4GA-94" value="" style="whiteSpace=wrap;html=1;aspect=fixed;fillColor=#dae8fc;strokeColor=#000000;strokeWidth=5;" parent="1" vertex="1">
                    <mxGeometry x="1704.6" y="234.34000000000003" width="27.5" height="27.5" as="geometry"/>
                </mxCell>
                <mxCell id="ybkfhQOrvzYeeOzd-4GA-95" style="edgeStyle=orthogonalEdgeStyle;rounded=0;jumpStyle=none;jumpSize=6;orthogonalLoop=1;jettySize=auto;html=1;entryX=0;entryY=0.5;entryDx=0;entryDy=0;startArrow=none;startFill=0;endArrow=classic;endFill=1;startSize=1;endSize=1;strokeColor=#000000;strokeWidth=5;" parent="1" source="ybkfhQOrvzYeeOzd-4GA-96" target="ybkfhQOrvzYeeOzd-4GA-166" edge="1">
                    <mxGeometry relative="1" as="geometry">
                        <Array as="points">
                            <mxPoint x="1785" y="350"/>
                        </Array>
                    </mxGeometry>
                </mxCell>
                <mxCell id="ybkfhQOrvzYeeOzd-4GA-96" value="" style="ellipse;whiteSpace=wrap;html=1;aspect=fixed;fillColor=#e1d5e7;strokeColor=#000000;strokeWidth=5;" parent="1" vertex="1">
                    <mxGeometry x="1732.27" y="329.84000000000015" width="40" height="40" as="geometry"/>
                </mxCell>
                <mxCell id="ybkfhQOrvzYeeOzd-4GA-97" value="" style="endArrow=none;html=1;rounded=0;strokeColor=#000000;entryX=0.5;entryY=0;entryDx=0;entryDy=0;exitX=0.5;exitY=1;exitDx=0;exitDy=0;strokeWidth=5;" parent="1" source="ybkfhQOrvzYeeOzd-4GA-96" target="ybkfhQOrvzYeeOzd-4GA-96" edge="1">
                    <mxGeometry width="50" height="50" relative="1" as="geometry">
                        <mxPoint x="1732.27" y="304.84000000000003" as="sourcePoint"/>
                        <mxPoint x="1782.27" y="254.84000000000003" as="targetPoint"/>
                    </mxGeometry>
                </mxCell>
                <mxCell id="ybkfhQOrvzYeeOzd-4GA-98" value="" style="endArrow=none;html=1;rounded=0;strokeColor=#000000;entryX=0;entryY=0.5;entryDx=0;entryDy=0;exitX=1;exitY=0.5;exitDx=0;exitDy=0;strokeWidth=5;" parent="1" source="ybkfhQOrvzYeeOzd-4GA-96" target="ybkfhQOrvzYeeOzd-4GA-96" edge="1">
                    <mxGeometry width="50" height="50" relative="1" as="geometry">
                        <mxPoint x="1782.27" y="204.84000000000003" as="sourcePoint"/>
                        <mxPoint x="1782.27" y="144.84000000000003" as="targetPoint"/>
                    </mxGeometry>
                </mxCell>
                <mxCell id="ybkfhQOrvzYeeOzd-4GA-99" value="" style="rounded=0;whiteSpace=wrap;html=1;glass=0;strokeColor=#000000;strokeWidth=5;fillColor=#FFD966;" parent="1" vertex="1">
                    <mxGeometry x="1694.6" y="329.84000000000015" width="20" height="36" as="geometry"/>
                </mxCell>
                <mxCell id="ybkfhQOrvzYeeOzd-4GA-100" value="" style="endArrow=none;html=1;rounded=0;startSize=1;endSize=1;strokeColor=#000000;strokeWidth=5;jumpStyle=none;jumpSize=6;" parent="1" edge="1">
                    <mxGeometry width="50" height="50" relative="1" as="geometry">
                        <mxPoint x="1694.6000000000004" y="366.34000000000106" as="sourcePoint"/>
                        <mxPoint x="1704.6000000000004" y="355.84000000000015" as="targetPoint"/>
                    </mxGeometry>
                </mxCell>
                <mxCell id="ybkfhQOrvzYeeOzd-4GA-101" value="" style="endArrow=none;html=1;rounded=0;startSize=1;endSize=1;strokeColor=#000000;strokeWidth=5;jumpStyle=none;jumpSize=6;" parent="1" edge="1">
                    <mxGeometry width="50" height="50" relative="1" as="geometry">
                        <mxPoint x="1704.6000000000004" y="355.84000000000015" as="sourcePoint"/>
                        <mxPoint x="1714.6000000000004" y="365.84000000000015" as="targetPoint"/>
                    </mxGeometry>
                </mxCell>
                <mxCell id="ybkfhQOrvzYeeOzd-4GA-104" style="edgeStyle=orthogonalEdgeStyle;rounded=0;jumpStyle=none;jumpSize=6;orthogonalLoop=1;jettySize=auto;html=1;entryX=0;entryY=0.5;entryDx=0;entryDy=0;startArrow=none;startFill=0;endArrow=classic;endFill=1;startSize=1;endSize=1;strokeColor=#000000;strokeWidth=5;" parent="1" source="ybkfhQOrvzYeeOzd-4GA-105" target="ybkfhQOrvzYeeOzd-4GA-86" edge="1">
                    <mxGeometry relative="1" as="geometry">
                        <Array as="points">
                            <mxPoint x="1624.6" y="349.84000000000015"/>
                        </Array>
                    </mxGeometry>
                </mxCell>
                <mxCell id="ybkfhQOrvzYeeOzd-4GA-105" value="" style="rounded=0;whiteSpace=wrap;html=1;glass=0;strokeColor=#000000;strokeWidth=5;fillColor=#FFD966;" parent="1" vertex="1">
                    <mxGeometry x="1594.6" y="331.59000000000015" width="20" height="36" as="geometry"/>
                </mxCell>
                <mxCell id="ybkfhQOrvzYeeOzd-4GA-106" value="" style="endArrow=none;html=1;rounded=0;startSize=1;endSize=1;strokeColor=#000000;strokeWidth=5;jumpStyle=none;jumpSize=6;" parent="1" edge="1">
                    <mxGeometry width="50" height="50" relative="1" as="geometry">
                        <mxPoint x="1594.6000000000004" y="368.09000000000015" as="sourcePoint"/>
                        <mxPoint x="1604.6000000000004" y="357.59000000000106" as="targetPoint"/>
                    </mxGeometry>
                </mxCell>
                <mxCell id="ybkfhQOrvzYeeOzd-4GA-107" value="" style="endArrow=none;html=1;rounded=0;startSize=1;endSize=1;strokeColor=#000000;strokeWidth=5;jumpStyle=none;jumpSize=6;" parent="1" edge="1">
                    <mxGeometry width="50" height="50" relative="1" as="geometry">
                        <mxPoint x="1604.6000000000004" y="357.59000000000106" as="sourcePoint"/>
                        <mxPoint x="1614.6000000000004" y="367.59000000000106" as="targetPoint"/>
                    </mxGeometry>
                </mxCell>
                <mxCell id="ybkfhQOrvzYeeOzd-4GA-108" style="edgeStyle=orthogonalEdgeStyle;rounded=1;jumpStyle=none;jumpSize=6;orthogonalLoop=1;jettySize=auto;html=1;entryX=0.5;entryY=0;entryDx=0;entryDy=0;startArrow=none;startFill=0;endArrow=classic;endFill=1;startSize=1;endSize=1;strokeColor=#000000;strokeWidth=5;" parent="1" target="ybkfhQOrvzYeeOzd-4GA-66" edge="1">
                    <mxGeometry relative="1" as="geometry">
                        <mxPoint x="1690" y="-116" as="sourcePoint"/>
                        <mxPoint x="1455" y="-69.00000000000045" as="targetPoint"/>
                        <Array as="points">
                            <mxPoint x="1655" y="-116"/>
                        </Array>
                    </mxGeometry>
                </mxCell>
                <mxCell id="ybkfhQOrvzYeeOzd-4GA-109" style="edgeStyle=orthogonalEdgeStyle;rounded=0;jumpStyle=none;jumpSize=6;orthogonalLoop=1;jettySize=auto;html=1;entryX=0;entryY=0.5;entryDx=0;entryDy=0;startArrow=none;startFill=0;endArrow=classic;endFill=1;startSize=1;endSize=1;strokeColor=#000000;strokeWidth=5;" parent="1" source="ybkfhQOrvzYeeOzd-4GA-110" target="ybkfhQOrvzYeeOzd-4GA-73" edge="1">
                    <mxGeometry relative="1" as="geometry"/>
                </mxCell>
                <mxCell id="ybkfhQOrvzYeeOzd-4GA-110" value="" style="rounded=0;whiteSpace=wrap;html=1;glass=0;strokeColor=#000000;strokeWidth=5;fillColor=#FFD966;" parent="1" vertex="1">
                    <mxGeometry x="1051.52" y="331.34000000000015" width="20" height="36" as="geometry"/>
                </mxCell>
                <mxCell id="ybkfhQOrvzYeeOzd-4GA-111" value="" style="endArrow=none;html=1;rounded=0;startSize=1;endSize=1;strokeColor=#000000;strokeWidth=5;jumpStyle=none;jumpSize=6;" parent="1" edge="1">
                    <mxGeometry width="50" height="50" relative="1" as="geometry">
                        <mxPoint x="1051.5199999999986" y="367.84000000000015" as="sourcePoint"/>
                        <mxPoint x="1061.5199999999986" y="357.34000000000015" as="targetPoint"/>
                    </mxGeometry>
                </mxCell>
                <mxCell id="ybkfhQOrvzYeeOzd-4GA-112" value="" style="endArrow=none;html=1;rounded=0;startSize=1;endSize=1;strokeColor=#000000;strokeWidth=5;jumpStyle=none;jumpSize=6;" parent="1" edge="1">
                    <mxGeometry width="50" height="50" relative="1" as="geometry">
                        <mxPoint x="1061.5199999999986" y="357.34000000000015" as="sourcePoint"/>
                        <mxPoint x="1071.5199999999986" y="367.34000000000015" as="targetPoint"/>
                    </mxGeometry>
                </mxCell>
                <mxCell id="ybkfhQOrvzYeeOzd-4GA-113" style="edgeStyle=orthogonalEdgeStyle;rounded=1;jumpStyle=none;jumpSize=6;orthogonalLoop=1;jettySize=auto;html=1;startArrow=none;startFill=0;endArrow=classic;endFill=1;startSize=1;endSize=1;strokeColor=#000000;strokeWidth=5;exitX=0.5;exitY=1;exitDx=0;exitDy=0;" parent="1" source="ybkfhQOrvzYeeOzd-4GA-118" edge="1">
                    <mxGeometry relative="1" as="geometry">
                        <Array as="points">
                            <mxPoint x="1653" y="-116"/>
                        </Array>
                        <mxPoint x="1653" y="50" as="targetPoint"/>
                        <mxPoint x="1859.5144751381213" y="-70.99999999999909" as="sourcePoint"/>
                    </mxGeometry>
                </mxCell>
                <mxCell id="ybkfhQOrvzYeeOzd-4GA-118" value="&lt;span style=&quot;font-family: &amp;#34;arial unicode ms&amp;#34; , &amp;#34;lucida sans unicode&amp;#34; , sans-serif ; font-size: 34px&quot;&gt;Δ(L-3)&lt;/span&gt;" style="whiteSpace=wrap;html=1;aspect=fixed;fillColor=#fff2cc;strokeColor=#000000;rotation=90;strokeWidth=5;horizontal=0;" parent="1" vertex="1">
                    <mxGeometry x="2225" y="-166" width="100" height="100" as="geometry"/>
                </mxCell>
                <mxCell id="ybkfhQOrvzYeeOzd-4GA-120" style="edgeStyle=orthogonalEdgeStyle;rounded=0;jumpStyle=none;jumpSize=6;orthogonalLoop=1;jettySize=auto;html=1;startArrow=none;startFill=0;endArrow=classic;endFill=1;startSize=1;endSize=1;strokeColor=#000000;strokeWidth=5;entryX=0.5;entryY=0;entryDx=0;entryDy=0;" parent="1" source="ybkfhQOrvzYeeOzd-4GA-121" target="ybkfhQOrvzYeeOzd-4GA-125" edge="1">
                    <mxGeometry relative="1" as="geometry">
                        <mxPoint x="2385.66" y="259.84000000000015" as="targetPoint"/>
                        <Array as="points"/>
                    </mxGeometry>
                </mxCell>
                <mxCell id="ybkfhQOrvzYeeOzd-4GA-121" value="" style="ellipse;whiteSpace=wrap;html=1;aspect=fixed;fillColor=#67AB9F;strokeWidth=5;strokeColor=#000000;" parent="1" vertex="1">
                    <mxGeometry x="2354.67" y="191.84000000000003" width="40" height="40" as="geometry"/>
                </mxCell>
                <mxCell id="ybkfhQOrvzYeeOzd-4GA-122" value="" style="endArrow=none;html=1;rounded=0;strokeColor=#000000;strokeWidth=5;exitX=0;exitY=0;exitDx=0;exitDy=0;entryX=1;entryY=1;entryDx=0;entryDy=0;" parent="1" source="ybkfhQOrvzYeeOzd-4GA-121" target="ybkfhQOrvzYeeOzd-4GA-121" edge="1">
                    <mxGeometry width="50" height="50" relative="1" as="geometry">
                        <mxPoint x="2409.67" y="243.59000000000015" as="sourcePoint"/>
                        <mxPoint x="2434.67" y="212.34000000000015" as="targetPoint"/>
                    </mxGeometry>
                </mxCell>
                <mxCell id="ybkfhQOrvzYeeOzd-4GA-123" value="" style="endArrow=none;html=1;rounded=0;strokeColor=#000000;strokeWidth=5;exitX=0;exitY=1;exitDx=0;exitDy=0;entryX=1;entryY=0;entryDx=0;entryDy=0;" parent="1" source="ybkfhQOrvzYeeOzd-4GA-121" target="ybkfhQOrvzYeeOzd-4GA-121" edge="1">
                    <mxGeometry width="50" height="50" relative="1" as="geometry">
                        <mxPoint x="2365.5278643762695" y="188.41233047033631" as="sourcePoint"/>
                        <mxPoint x="2393.981484117605" y="223.55341811969674" as="targetPoint"/>
                    </mxGeometry>
                </mxCell>
                <mxCell id="ybkfhQOrvzYeeOzd-4GA-124" style="edgeStyle=orthogonalEdgeStyle;rounded=0;jumpStyle=none;jumpSize=6;orthogonalLoop=1;jettySize=auto;html=1;entryX=0;entryY=0.5;entryDx=0;entryDy=0;startArrow=none;startFill=0;endArrow=classic;endFill=1;startSize=1;endSize=1;strokeColor=#000000;strokeWidth=5;" parent="1" source="ybkfhQOrvzYeeOzd-4GA-125" target="ybkfhQOrvzYeeOzd-4GA-157" edge="1">
                    <mxGeometry relative="1" as="geometry"/>
                </mxCell>
                <mxCell id="ybkfhQOrvzYeeOzd-4GA-125" value="" style="ellipse;whiteSpace=wrap;html=1;aspect=fixed;fillColor=#e1d5e7;strokeColor=#000000;strokeWidth=5;" parent="1" vertex="1">
                    <mxGeometry x="2354.67" y="329.84000000000015" width="40" height="40" as="geometry"/>
                </mxCell>
                <mxCell id="ybkfhQOrvzYeeOzd-4GA-126" value="" style="endArrow=none;html=1;rounded=0;strokeColor=#000000;entryX=0.5;entryY=0;entryDx=0;entryDy=0;exitX=0.5;exitY=1;exitDx=0;exitDy=0;strokeWidth=5;" parent="1" source="ybkfhQOrvzYeeOzd-4GA-125" target="ybkfhQOrvzYeeOzd-4GA-125" edge="1">
                    <mxGeometry width="50" height="50" relative="1" as="geometry">
                        <mxPoint x="2354.67" y="284.34000000000015" as="sourcePoint"/>
                        <mxPoint x="2404.67" y="234.34000000000003" as="targetPoint"/>
                    </mxGeometry>
                </mxCell>
                <mxCell id="ybkfhQOrvzYeeOzd-4GA-127" value="" style="endArrow=none;html=1;rounded=0;strokeColor=#000000;entryX=0;entryY=0.5;entryDx=0;entryDy=0;exitX=1;exitY=0.5;exitDx=0;exitDy=0;strokeWidth=5;" parent="1" source="ybkfhQOrvzYeeOzd-4GA-125" target="ybkfhQOrvzYeeOzd-4GA-125" edge="1">
                    <mxGeometry width="50" height="50" relative="1" as="geometry">
                        <mxPoint x="2404.67" y="184.34000000000003" as="sourcePoint"/>
                        <mxPoint x="2404.67" y="124.34000000000003" as="targetPoint"/>
                    </mxGeometry>
                </mxCell>
                <mxCell id="ybkfhQOrvzYeeOzd-4GA-128" style="edgeStyle=orthogonalEdgeStyle;rounded=0;jumpStyle=none;jumpSize=6;orthogonalLoop=1;jettySize=auto;html=1;entryX=0;entryY=0.5;entryDx=0;entryDy=0;startArrow=none;startFill=0;endArrow=classic;endFill=1;startSize=1;endSize=1;strokeColor=#000000;strokeWidth=5;" parent="1" source="ybkfhQOrvzYeeOzd-4GA-129" target="ybkfhQOrvzYeeOzd-4GA-121" edge="1">
                    <mxGeometry relative="1" as="geometry">
                        <Array as="points">
                            <mxPoint x="2340.83" y="211.84000000000015"/>
                        </Array>
                    </mxGeometry>
                </mxCell>
                <mxCell id="ybkfhQOrvzYeeOzd-4GA-129" value="" style="whiteSpace=wrap;html=1;aspect=fixed;fillColor=#dae8fc;strokeColor=#000000;strokeWidth=5;" parent="1" vertex="1">
                    <mxGeometry x="2327.17" y="234.34000000000015" width="27.5" height="27.5" as="geometry"/>
                </mxCell>
                <mxCell id="ybkfhQOrvzYeeOzd-4GA-130" style="edgeStyle=orthogonalEdgeStyle;rounded=0;jumpStyle=none;jumpSize=6;orthogonalLoop=1;jettySize=auto;html=1;entryX=0.5;entryY=0;entryDx=0;entryDy=0;startArrow=none;startFill=0;endArrow=classic;endFill=1;startSize=1;endSize=1;strokeColor=#000000;strokeWidth=5;" parent="1" source="ybkfhQOrvzYeeOzd-4GA-131" target="ybkfhQOrvzYeeOzd-4GA-138" edge="1">
                    <mxGeometry relative="1" as="geometry"/>
                </mxCell>
                <mxCell id="ybkfhQOrvzYeeOzd-4GA-131" value="" style="ellipse;whiteSpace=wrap;html=1;aspect=fixed;fillColor=#67AB9F;strokeWidth=5;strokeColor=#000000;" parent="1" vertex="1">
                    <mxGeometry x="2452.51" y="194.34000000000003" width="40" height="40" as="geometry"/>
                </mxCell>
                <mxCell id="ybkfhQOrvzYeeOzd-4GA-132" value="" style="endArrow=none;html=1;rounded=0;strokeColor=#000000;strokeWidth=5;exitX=0;exitY=0;exitDx=0;exitDy=0;entryX=1;entryY=1;entryDx=0;entryDy=0;" parent="1" source="ybkfhQOrvzYeeOzd-4GA-131" target="ybkfhQOrvzYeeOzd-4GA-131" edge="1">
                    <mxGeometry width="50" height="50" relative="1" as="geometry">
                        <mxPoint x="2457.51" y="226.09000000000015" as="sourcePoint"/>
                        <mxPoint x="2482.51" y="194.84000000000003" as="targetPoint"/>
                    </mxGeometry>
                </mxCell>
                <mxCell id="ybkfhQOrvzYeeOzd-4GA-133" value="" style="endArrow=none;html=1;rounded=0;strokeColor=#000000;strokeWidth=5;exitX=0;exitY=1;exitDx=0;exitDy=0;entryX=1;entryY=0;entryDx=0;entryDy=0;" parent="1" source="ybkfhQOrvzYeeOzd-4GA-131" target="ybkfhQOrvzYeeOzd-4GA-131" edge="1">
                    <mxGeometry width="50" height="50" relative="1" as="geometry">
                        <mxPoint x="2413.367864376269" y="170.91233047033631" as="sourcePoint"/>
                        <mxPoint x="2441.821484117605" y="206.05341811969663" as="targetPoint"/>
                    </mxGeometry>
                </mxCell>
                <mxCell id="ybkfhQOrvzYeeOzd-4GA-134" style="edgeStyle=orthogonalEdgeStyle;rounded=0;jumpStyle=none;jumpSize=6;orthogonalLoop=1;jettySize=auto;html=1;entryX=0;entryY=0.5;entryDx=0;entryDy=0;startArrow=none;startFill=0;endArrow=classic;endFill=1;startSize=1;endSize=1;strokeColor=#000000;strokeWidth=5;" parent="1" source="ybkfhQOrvzYeeOzd-4GA-135" target="ybkfhQOrvzYeeOzd-4GA-131" edge="1">
                    <mxGeometry relative="1" as="geometry"/>
                </mxCell>
                <mxCell id="ybkfhQOrvzYeeOzd-4GA-135" value="" style="whiteSpace=wrap;html=1;aspect=fixed;fillColor=#dae8fc;strokeColor=#000000;strokeWidth=5;" parent="1" vertex="1">
                    <mxGeometry x="2425.01" y="234.34000000000015" width="27.5" height="27.5" as="geometry"/>
                </mxCell>
                <mxCell id="ybkfhQOrvzYeeOzd-4GA-136" style="edgeStyle=orthogonalEdgeStyle;rounded=0;jumpStyle=none;jumpSize=6;orthogonalLoop=1;jettySize=auto;html=1;startArrow=none;startFill=0;endArrow=classic;endFill=1;startSize=1;endSize=1;strokeColor=#000000;strokeWidth=5;" parent="1" edge="1">
                    <mxGeometry relative="1" as="geometry">
                        <mxPoint x="2553.7700000000004" y="349.84000000000015" as="targetPoint"/>
                        <mxPoint x="2532.6099895876687" y="349.8604081632657" as="sourcePoint"/>
                    </mxGeometry>
                </mxCell>
                <mxCell id="ybkfhQOrvzYeeOzd-4GA-137" style="edgeStyle=orthogonalEdgeStyle;rounded=0;jumpStyle=none;jumpSize=6;orthogonalLoop=1;jettySize=auto;html=1;entryX=-0.007;entryY=0.555;entryDx=0;entryDy=0;entryPerimeter=0;startArrow=none;startFill=0;endArrow=classic;endFill=1;startSize=1;endSize=1;strokeColor=#000000;strokeWidth=5;" parent="1" source="ybkfhQOrvzYeeOzd-4GA-138" target="ybkfhQOrvzYeeOzd-4GA-151" edge="1">
                    <mxGeometry relative="1" as="geometry"/>
                </mxCell>
                <mxCell id="ybkfhQOrvzYeeOzd-4GA-138" value="" style="ellipse;whiteSpace=wrap;html=1;aspect=fixed;fillColor=#e1d5e7;strokeColor=#000000;strokeWidth=5;" parent="1" vertex="1">
                    <mxGeometry x="2452.51" y="329.84000000000015" width="40" height="40" as="geometry"/>
                </mxCell>
                <mxCell id="ybkfhQOrvzYeeOzd-4GA-139" value="" style="endArrow=none;html=1;rounded=0;strokeColor=#000000;entryX=0.5;entryY=0;entryDx=0;entryDy=0;exitX=0.5;exitY=1;exitDx=0;exitDy=0;strokeWidth=5;" parent="1" source="ybkfhQOrvzYeeOzd-4GA-138" target="ybkfhQOrvzYeeOzd-4GA-138" edge="1">
                    <mxGeometry width="50" height="50" relative="1" as="geometry">
                        <mxPoint x="2452.51" y="284.34000000000015" as="sourcePoint"/>
                        <mxPoint x="2502.51" y="234.34000000000003" as="targetPoint"/>
                    </mxGeometry>
                </mxCell>
                <mxCell id="ybkfhQOrvzYeeOzd-4GA-140" value="" style="endArrow=none;html=1;rounded=0;strokeColor=#000000;entryX=0;entryY=0.5;entryDx=0;entryDy=0;exitX=1;exitY=0.5;exitDx=0;exitDy=0;strokeWidth=5;" parent="1" source="ybkfhQOrvzYeeOzd-4GA-138" target="ybkfhQOrvzYeeOzd-4GA-138" edge="1">
                    <mxGeometry width="50" height="50" relative="1" as="geometry">
                        <mxPoint x="2502.51" y="184.34000000000003" as="sourcePoint"/>
                        <mxPoint x="2502.51" y="124.34000000000003" as="targetPoint"/>
                    </mxGeometry>
                </mxCell>
                <mxCell id="ybkfhQOrvzYeeOzd-4GA-141" style="edgeStyle=orthogonalEdgeStyle;rounded=0;jumpStyle=none;jumpSize=6;orthogonalLoop=1;jettySize=auto;html=1;entryX=0.5;entryY=0;entryDx=0;entryDy=0;startArrow=none;startFill=0;endArrow=classic;endFill=1;startSize=1;endSize=1;strokeColor=#000000;strokeWidth=5;" parent="1" source="ybkfhQOrvzYeeOzd-4GA-142" target="ybkfhQOrvzYeeOzd-4GA-148" edge="1">
                    <mxGeometry relative="1" as="geometry"/>
                </mxCell>
                <mxCell id="ybkfhQOrvzYeeOzd-4GA-142" value="" style="ellipse;whiteSpace=wrap;html=1;aspect=fixed;fillColor=#67AB9F;strokeWidth=5;strokeColor=#000000;" parent="1" vertex="1">
                    <mxGeometry x="2552.1" y="194.34000000000003" width="40" height="40" as="geometry"/>
                </mxCell>
                <mxCell id="ybkfhQOrvzYeeOzd-4GA-143" value="" style="endArrow=none;html=1;rounded=0;strokeColor=#000000;strokeWidth=5;exitX=0;exitY=0;exitDx=0;exitDy=0;entryX=1;entryY=1;entryDx=0;entryDy=0;" parent="1" source="ybkfhQOrvzYeeOzd-4GA-142" target="ybkfhQOrvzYeeOzd-4GA-142" edge="1">
                    <mxGeometry width="50" height="50" relative="1" as="geometry">
                        <mxPoint x="2557.1" y="226.09000000000015" as="sourcePoint"/>
                        <mxPoint x="2582.1" y="194.84000000000003" as="targetPoint"/>
                    </mxGeometry>
                </mxCell>
                <mxCell id="ybkfhQOrvzYeeOzd-4GA-144" value="" style="endArrow=none;html=1;rounded=0;strokeColor=#000000;strokeWidth=5;exitX=0;exitY=1;exitDx=0;exitDy=0;entryX=1;entryY=0;entryDx=0;entryDy=0;" parent="1" source="ybkfhQOrvzYeeOzd-4GA-142" target="ybkfhQOrvzYeeOzd-4GA-142" edge="1">
                    <mxGeometry width="50" height="50" relative="1" as="geometry">
                        <mxPoint x="2512.9578643762693" y="170.91233047033631" as="sourcePoint"/>
                        <mxPoint x="2541.411484117605" y="206.05341811969663" as="targetPoint"/>
                    </mxGeometry>
                </mxCell>
                <mxCell id="ybkfhQOrvzYeeOzd-4GA-145" style="edgeStyle=orthogonalEdgeStyle;rounded=0;jumpStyle=none;jumpSize=6;orthogonalLoop=1;jettySize=auto;html=1;entryX=0;entryY=0.5;entryDx=0;entryDy=0;startArrow=none;startFill=0;endArrow=classic;endFill=1;startSize=1;endSize=1;strokeColor=#000000;strokeWidth=5;" parent="1" source="ybkfhQOrvzYeeOzd-4GA-146" target="ybkfhQOrvzYeeOzd-4GA-142" edge="1">
                    <mxGeometry relative="1" as="geometry"/>
                </mxCell>
                <mxCell id="ybkfhQOrvzYeeOzd-4GA-146" value="" style="whiteSpace=wrap;html=1;aspect=fixed;fillColor=#dae8fc;strokeColor=#000000;strokeWidth=5;" parent="1" vertex="1">
                    <mxGeometry x="2524.6" y="234.34000000000015" width="27.5" height="27.5" as="geometry"/>
                </mxCell>
                <mxCell id="ybkfhQOrvzYeeOzd-4GA-147" style="edgeStyle=orthogonalEdgeStyle;rounded=0;jumpStyle=none;jumpSize=6;orthogonalLoop=1;jettySize=auto;html=1;entryX=0;entryY=0.5;entryDx=0;entryDy=0;startArrow=none;startFill=0;endArrow=classic;endFill=1;startSize=1;endSize=1;strokeColor=#000000;strokeWidth=5;" parent="1" source="ybkfhQOrvzYeeOzd-4GA-148" target="ybkfhQOrvzYeeOzd-4GA-162" edge="1">
                    <mxGeometry relative="1" as="geometry"/>
                </mxCell>
                <mxCell id="ybkfhQOrvzYeeOzd-4GA-148" value="" style="ellipse;whiteSpace=wrap;html=1;aspect=fixed;fillColor=#e1d5e7;strokeColor=#000000;strokeWidth=5;" parent="1" vertex="1">
                    <mxGeometry x="2552.27" y="329.84000000000015" width="40" height="40" as="geometry"/>
                </mxCell>
                <mxCell id="ybkfhQOrvzYeeOzd-4GA-149" value="" style="endArrow=none;html=1;rounded=0;strokeColor=#000000;entryX=0.5;entryY=0;entryDx=0;entryDy=0;exitX=0.5;exitY=1;exitDx=0;exitDy=0;strokeWidth=5;" parent="1" source="ybkfhQOrvzYeeOzd-4GA-148" target="ybkfhQOrvzYeeOzd-4GA-148" edge="1">
                    <mxGeometry width="50" height="50" relative="1" as="geometry">
                        <mxPoint x="2552.27" y="304.84000000000015" as="sourcePoint"/>
                        <mxPoint x="2602.27" y="254.84000000000015" as="targetPoint"/>
                    </mxGeometry>
                </mxCell>
                <mxCell id="ybkfhQOrvzYeeOzd-4GA-150" value="" style="endArrow=none;html=1;rounded=0;strokeColor=#000000;entryX=0;entryY=0.5;entryDx=0;entryDy=0;exitX=1;exitY=0.5;exitDx=0;exitDy=0;strokeWidth=5;" parent="1" source="ybkfhQOrvzYeeOzd-4GA-148" target="ybkfhQOrvzYeeOzd-4GA-148" edge="1">
                    <mxGeometry width="50" height="50" relative="1" as="geometry">
                        <mxPoint x="2602.27" y="204.84000000000003" as="sourcePoint"/>
                        <mxPoint x="2602.27" y="144.84000000000003" as="targetPoint"/>
                    </mxGeometry>
                </mxCell>
                <mxCell id="ybkfhQOrvzYeeOzd-4GA-151" value="" style="rounded=0;whiteSpace=wrap;html=1;glass=0;strokeColor=#000000;strokeWidth=5;fillColor=#FFD966;" parent="1" vertex="1">
                    <mxGeometry x="2514.6" y="329.84000000000015" width="20" height="36" as="geometry"/>
                </mxCell>
                <mxCell id="ybkfhQOrvzYeeOzd-4GA-152" value="" style="endArrow=none;html=1;rounded=0;startSize=1;endSize=1;strokeColor=#000000;strokeWidth=5;jumpStyle=none;jumpSize=6;" parent="1" edge="1">
                    <mxGeometry width="50" height="50" relative="1" as="geometry">
                        <mxPoint x="2514.6000000000004" y="366.34000000000106" as="sourcePoint"/>
                        <mxPoint x="2524.6000000000004" y="355.84000000000015" as="targetPoint"/>
                    </mxGeometry>
                </mxCell>
                <mxCell id="ybkfhQOrvzYeeOzd-4GA-153" value="" style="endArrow=none;html=1;rounded=0;startSize=1;endSize=1;strokeColor=#000000;strokeWidth=5;jumpStyle=none;jumpSize=6;" parent="1" edge="1">
                    <mxGeometry width="50" height="50" relative="1" as="geometry">
                        <mxPoint x="2524.6000000000004" y="355.84000000000015" as="sourcePoint"/>
                        <mxPoint x="2534.6000000000004" y="365.84000000000015" as="targetPoint"/>
                    </mxGeometry>
                </mxCell>
                <mxCell id="ybkfhQOrvzYeeOzd-4GA-156" style="edgeStyle=orthogonalEdgeStyle;rounded=0;jumpStyle=none;jumpSize=6;orthogonalLoop=1;jettySize=auto;html=1;entryX=0;entryY=0.5;entryDx=0;entryDy=0;startArrow=none;startFill=0;endArrow=classic;endFill=1;startSize=1;endSize=1;strokeColor=#000000;strokeWidth=5;" parent="1" source="ybkfhQOrvzYeeOzd-4GA-157" target="ybkfhQOrvzYeeOzd-4GA-138" edge="1">
                    <mxGeometry relative="1" as="geometry">
                        <Array as="points">
                            <mxPoint x="2444.6" y="349.84000000000015"/>
                        </Array>
                    </mxGeometry>
                </mxCell>
                <mxCell id="ybkfhQOrvzYeeOzd-4GA-157" value="" style="rounded=0;whiteSpace=wrap;html=1;glass=0;strokeColor=#000000;strokeWidth=5;fillColor=#FFD966;" parent="1" vertex="1">
                    <mxGeometry x="2414.6" y="331.59000000000015" width="20" height="36" as="geometry"/>
                </mxCell>
                <mxCell id="ybkfhQOrvzYeeOzd-4GA-158" value="" style="endArrow=none;html=1;rounded=0;startSize=1;endSize=1;strokeColor=#000000;strokeWidth=5;jumpStyle=none;jumpSize=6;" parent="1" edge="1">
                    <mxGeometry width="50" height="50" relative="1" as="geometry">
                        <mxPoint x="2414.6000000000004" y="368.09000000000015" as="sourcePoint"/>
                        <mxPoint x="2424.6000000000004" y="357.59000000000106" as="targetPoint"/>
                    </mxGeometry>
                </mxCell>
                <mxCell id="ybkfhQOrvzYeeOzd-4GA-159" value="" style="endArrow=none;html=1;rounded=0;startSize=1;endSize=1;strokeColor=#000000;strokeWidth=5;jumpStyle=none;jumpSize=6;" parent="1" edge="1">
                    <mxGeometry width="50" height="50" relative="1" as="geometry">
                        <mxPoint x="2424.6000000000004" y="357.59000000000106" as="sourcePoint"/>
                        <mxPoint x="2434.6000000000004" y="367.59000000000106" as="targetPoint"/>
                    </mxGeometry>
                </mxCell>
                <mxCell id="ybkfhQOrvzYeeOzd-4GA-160" style="edgeStyle=orthogonalEdgeStyle;rounded=1;jumpStyle=none;jumpSize=6;orthogonalLoop=1;jettySize=auto;html=1;entryX=0.5;entryY=0;entryDx=0;entryDy=0;startArrow=none;startFill=0;endArrow=classic;endFill=1;startSize=1;endSize=1;strokeColor=#000000;strokeWidth=5;" parent="1" target="ybkfhQOrvzYeeOzd-4GA-118" edge="1">
                    <mxGeometry relative="1" as="geometry">
                        <mxPoint x="2475" y="-116" as="sourcePoint"/>
                        <mxPoint x="2275" y="-65" as="targetPoint"/>
                        <Array as="points">
                            <mxPoint x="2420" y="-116"/>
                            <mxPoint x="2420" y="-116"/>
                        </Array>
                    </mxGeometry>
                </mxCell>
                <mxCell id="ybkfhQOrvzYeeOzd-4GA-162" value="" style="rounded=0;whiteSpace=wrap;html=1;glass=0;strokeColor=#000000;strokeWidth=5;fillColor=#FFD966;" parent="1" vertex="1">
                    <mxGeometry x="2611.52" y="331.34000000000015" width="20" height="36" as="geometry"/>
                </mxCell>
                <mxCell id="ybkfhQOrvzYeeOzd-4GA-163" value="" style="endArrow=none;html=1;rounded=0;startSize=1;endSize=1;strokeColor=#000000;strokeWidth=5;jumpStyle=none;jumpSize=6;" parent="1" edge="1">
                    <mxGeometry width="50" height="50" relative="1" as="geometry">
                        <mxPoint x="2611.5200000000004" y="367.84000000000015" as="sourcePoint"/>
                        <mxPoint x="2621.5200000000004" y="357.34000000000015" as="targetPoint"/>
                    </mxGeometry>
                </mxCell>
                <mxCell id="ybkfhQOrvzYeeOzd-4GA-164" value="" style="endArrow=none;html=1;rounded=0;startSize=1;endSize=1;strokeColor=#000000;strokeWidth=5;jumpStyle=none;jumpSize=6;" parent="1" edge="1">
                    <mxGeometry width="50" height="50" relative="1" as="geometry">
                        <mxPoint x="2621.5200000000004" y="357.34000000000015" as="sourcePoint"/>
                        <mxPoint x="2631.5200000000004" y="367.34000000000015" as="targetPoint"/>
                    </mxGeometry>
                </mxCell>
                <mxCell id="ybkfhQOrvzYeeOzd-4GA-165" style="edgeStyle=orthogonalEdgeStyle;rounded=0;jumpStyle=none;jumpSize=6;orthogonalLoop=1;jettySize=auto;html=1;entryX=0;entryY=0.5;entryDx=0;entryDy=0;startArrow=none;startFill=0;endArrow=classic;endFill=1;startSize=1;endSize=1;strokeColor=#000000;strokeWidth=5;" parent="1" source="ybkfhQOrvzYeeOzd-4GA-166" target="ybkfhQOrvzYeeOzd-4GA-125" edge="1">
                    <mxGeometry relative="1" as="geometry"/>
                </mxCell>
                <mxCell id="ybkfhQOrvzYeeOzd-4GA-166" value="" style="rounded=0;whiteSpace=wrap;html=1;glass=0;strokeColor=#000000;strokeWidth=5;fillColor=#FFD966;" parent="1" vertex="1">
                    <mxGeometry x="1791.52" y="331.34000000000015" width="20" height="36" as="geometry"/>
                </mxCell>
                <mxCell id="ybkfhQOrvzYeeOzd-4GA-167" value="" style="endArrow=none;html=1;rounded=0;startSize=1;endSize=1;strokeColor=#000000;strokeWidth=5;jumpStyle=none;jumpSize=6;" parent="1" edge="1">
                    <mxGeometry width="50" height="50" relative="1" as="geometry">
                        <mxPoint x="1791.5200000000004" y="367.84000000000015" as="sourcePoint"/>
                        <mxPoint x="1801.5200000000004" y="357.34000000000015" as="targetPoint"/>
                    </mxGeometry>
                </mxCell>
                <mxCell id="ybkfhQOrvzYeeOzd-4GA-168" value="" style="endArrow=none;html=1;rounded=0;startSize=1;endSize=1;strokeColor=#000000;strokeWidth=5;jumpStyle=none;jumpSize=6;" parent="1" edge="1">
                    <mxGeometry width="50" height="50" relative="1" as="geometry">
                        <mxPoint x="1801.5200000000004" y="357.34000000000015" as="sourcePoint"/>
                        <mxPoint x="1811.5200000000004" y="367.34000000000015" as="targetPoint"/>
                    </mxGeometry>
                </mxCell>
                <mxCell id="ybkfhQOrvzYeeOzd-4GA-317" style="edgeStyle=orthogonalEdgeStyle;rounded=0;orthogonalLoop=1;jettySize=auto;html=1;entryX=0.388;entryY=0.003;entryDx=0;entryDy=0;entryPerimeter=0;strokeWidth=5;strokeColor=#000000;" parent="1" source="ybkfhQOrvzYeeOzd-4GA-318" edge="1">
                    <mxGeometry relative="1" as="geometry">
                        <mxPoint x="1702.0300000000007" y="-469.87999999999965" as="targetPoint"/>
                    </mxGeometry>
                </mxCell>
                <mxCell id="ybkfhQOrvzYeeOzd-4GA-318" value="" style="whiteSpace=wrap;html=1;aspect=fixed;fillColor=#d5e8d4;strokeColor=#000000;strokeWidth=5;" parent="1" vertex="1">
                    <mxGeometry x="1632.1100000000001" y="-720" width="140" height="140" as="geometry"/>
                </mxCell>
                <mxCell id="ybkfhQOrvzYeeOzd-4GA-319" style="edgeStyle=orthogonalEdgeStyle;rounded=1;jumpStyle=none;jumpSize=6;orthogonalLoop=1;jettySize=auto;html=1;startArrow=none;startFill=0;endArrow=classic;endFill=1;startSize=1;endSize=1;strokeColor=#000000;strokeWidth=5;exitX=0.75;exitY=1;exitDx=0;exitDy=0;" parent="1" source="ybkfhQOrvzYeeOzd-4GA-9" edge="1">
                    <mxGeometry relative="1" as="geometry">
                        <mxPoint x="2475" y="50" as="targetPoint"/>
                        <Array as="points">
                            <mxPoint x="1863" y="-380"/>
                            <mxPoint x="2475" y="-380"/>
                        </Array>
                    </mxGeometry>
                </mxCell>
                <mxCell id="ybkfhQOrvzYeeOzd-4GA-321" value="" style="endArrow=none;html=1;rounded=0;startSize=1;endSize=1;strokeColor=#000000;strokeWidth=5;jumpStyle=none;jumpSize=6;" parent="1" edge="1">
                    <mxGeometry width="50" height="50" relative="1" as="geometry">
                        <mxPoint x="2331.5200000000004" y="50" as="sourcePoint"/>
                        <mxPoint x="2611.5200000000004" y="50" as="targetPoint"/>
                    </mxGeometry>
                </mxCell>
                <mxCell id="ybkfhQOrvzYeeOzd-4GA-327" value="L2: Channel Memory" style="text;html=1;strokeColor=none;fillColor=none;align=left;verticalAlign=middle;whiteSpace=wrap;rounded=0;glass=0;fontSize=45;strokeWidth=5;fontStyle=1" parent="1" vertex="1">
                    <mxGeometry x="426.51" y="-571.5799999999999" width="270" height="190" as="geometry"/>
                </mxCell>
                <mxCell id="ybkfhQOrvzYeeOzd-4GA-328" value="L1: Line Buffer" style="text;html=1;strokeColor=none;fillColor=none;align=left;verticalAlign=middle;whiteSpace=wrap;rounded=0;glass=0;fontSize=45;strokeWidth=5;fontStyle=1" parent="1" vertex="1">
                    <mxGeometry x="426.51" y="-166" width="272.49" height="130" as="geometry"/>
                </mxCell>
                <mxCell id="ybkfhQOrvzYeeOzd-4GA-329" value="Broadcast" style="text;html=1;strokeColor=none;fillColor=none;align=left;verticalAlign=middle;whiteSpace=wrap;rounded=0;glass=0;fontSize=43;fontStyle=1;strokeWidth=5;" parent="1" vertex="1">
                    <mxGeometry x="426.51" y="6.210000000000036" width="290" height="130" as="geometry"/>
                </mxCell>
                <mxCell id="ybkfhQOrvzYeeOzd-4GA-330" value="Weight&amp;nbsp;&lt;br style=&quot;font-size: 41px;&quot;&gt;Multipication" style="text;html=1;strokeColor=none;fillColor=none;align=left;verticalAlign=middle;whiteSpace=wrap;rounded=0;glass=0;fontSize=41;strokeWidth=5;fontStyle=1" parent="1" vertex="1">
                    <mxGeometry x="426.51" y="154" width="202.49" height="130" as="geometry"/>
                </mxCell>
                <mxCell id="ybkfhQOrvzYeeOzd-4GA-331" value="Partial Sum Systolic Reduction" style="text;html=1;strokeColor=none;fillColor=none;align=left;verticalAlign=middle;whiteSpace=wrap;rounded=0;glass=0;fontSize=44;strokeWidth=5;fontStyle=1" parent="1" vertex="1">
                    <mxGeometry x="425.51" y="304" width="249.49" height="130" as="geometry"/>
                </mxCell>
                <mxCell id="2" value="" style="rounded=1;whiteSpace=wrap;html=1;fillColor=#E6D0DE;opacity=40;strokeColor=#000000;glass=0;strokeWidth=4;rotation=90;" parent="1" vertex="1">
                    <mxGeometry x="2753.88" y="194.12" width="170.75" height="347.5" as="geometry"/>
                </mxCell>
                <mxCell id="10" style="edgeStyle=none;rounded=1;html=1;exitX=1;exitY=0.5;exitDx=0;exitDy=0;strokeWidth=5;entryX=0;entryY=0.5;entryDx=0;entryDy=0;" parent="1" source="3" target="ybkfhQOrvzYeeOzd-4GA-26" edge="1">
                    <mxGeometry relative="1" as="geometry">
                        <mxPoint x="795" y="590" as="targetPoint"/>
                        <Array as="points">
                            <mxPoint x="2768" y="420"/>
                            <mxPoint x="745" y="420"/>
                            <mxPoint x="745" y="350"/>
                        </Array>
                    </mxGeometry>
                </mxCell>
                <mxCell id="3" value="" style="whiteSpace=wrap;html=1;aspect=fixed;fillColor=#e1d5e7;strokeColor=#9673a6;strokeWidth=3;rotation=90;fontSize=17;horizontal=0;fontStyle=1" parent="1" vertex="1">
                    <mxGeometry x="2727.9999999999995" y="309.84000000000003" width="80" height="80" as="geometry"/>
                </mxCell>
                <mxCell id="9" style="edgeStyle=none;html=1;strokeWidth=5;rounded=0;" parent="1" source="ybkfhQOrvzYeeOzd-4GA-162" target="3" edge="1">
                    <mxGeometry relative="1" as="geometry"/>
                </mxCell>
                <mxCell id="11" value="OFmap Memory" style="text;html=1;strokeColor=none;fillColor=none;align=left;verticalAlign=middle;whiteSpace=wrap;rounded=0;glass=0;fontSize=44;strokeWidth=5;fontStyle=1" parent="1" vertex="1">
                    <mxGeometry x="2825" y="309.84000000000003" width="180" height="130" as="geometry"/>
                </mxCell>
                <mxCell id="12" value="" style="shape=curlyBracket;whiteSpace=wrap;html=1;rounded=1;glass=0;fontSize=50;fontColor=#000000;strokeColor=#000000;strokeWidth=7;fillColor=#0000FF;" parent="1" vertex="1">
                    <mxGeometry x="330" y="136.20999999999998" width="60" height="353.79" as="geometry"/>
                </mxCell>
                <mxCell id="13" value="Filter Unroll Factor = 1" style="text;html=1;strokeColor=none;fillColor=none;align=center;verticalAlign=middle;whiteSpace=wrap;rounded=0;glass=0;fontSize=50;fontColor=#000000;horizontal=0;fontStyle=1" parent="1" vertex="1">
                    <mxGeometry x="260" y="24.3599999999999" width="60" height="577.5" as="geometry"/>
                </mxCell>
                <mxCell id="14" value="" style="shape=curlyBracket;whiteSpace=wrap;html=1;rounded=1;glass=0;fontSize=50;fontColor=#000000;strokeColor=#000000;strokeWidth=8;fillColor=#0000FF;rotation=-90;size=0.5;" parent="1" vertex="1">
                    <mxGeometry x="1615.6" y="-250" width="95" height="1890" as="geometry"/>
                </mxCell>
                <mxCell id="15" value="Channel Unroll Factor = 1" style="text;html=1;strokeColor=none;fillColor=none;align=center;verticalAlign=middle;whiteSpace=wrap;rounded=0;glass=0;fontSize=50;fontColor=#000000;horizontal=0;rotation=90;fontStyle=1" parent="1" vertex="1">
                    <mxGeometry x="1633.1" y="470" width="60" height="645" as="geometry"/>
                </mxCell>
                <mxCell id="20" value="" style="shape=curlyBracket;whiteSpace=wrap;html=1;rounded=1;glass=0;fontSize=50;fontColor=#000000;strokeColor=#000000;strokeWidth=8;fillColor=#0000FF;rotation=-90;size=0.5;" parent="1" vertex="1">
                    <mxGeometry x="1615.6" y="-430" width="95" height="1890" as="geometry"/>
                </mxCell>
                <mxCell id="21" value="Kernel Unroll Factor = 9" style="text;html=1;strokeColor=none;fillColor=none;align=center;verticalAlign=middle;whiteSpace=wrap;rounded=0;glass=0;fontSize=50;fontColor=#000000;horizontal=0;rotation=90;fontStyle=1" parent="1" vertex="1">
                    <mxGeometry x="1633.1" y="270" width="60" height="645" as="geometry"/>
                </mxCell>
                <mxCell id="22" value="" style="shape=trapezoid;perimeter=trapezoidPerimeter;whiteSpace=wrap;html=1;fixedSize=1;rounded=0;glass=0;strokeColor=#000000;strokeWidth=4;fillColor=#fad7ac;rotation=-180;" parent="1" vertex="1">
                    <mxGeometry x="771.67" y="106.21000000000001" width="86" height="30" as="geometry"/>
                </mxCell>
                <mxCell id="23" style="edgeStyle=orthogonalEdgeStyle;rounded=0;jumpStyle=none;jumpSize=6;orthogonalLoop=1;jettySize=auto;html=1;entryX=0.5;entryY=0;entryDx=0;entryDy=0;startArrow=none;startFill=0;endArrow=classic;endFill=1;startSize=1;endSize=1;strokeColor=#000000;strokeWidth=5;exitX=0.5;exitY=0;exitDx=0;exitDy=0;" parent="1" source="24" edge="1">
                    <mxGeometry relative="1" as="geometry">
                        <mxPoint x="912.1257142857138" y="99.84000000000015" as="sourcePoint"/>
                        <mxPoint x="912.5100000000001" y="191.84000000000015" as="targetPoint"/>
                    </mxGeometry>
                </mxCell>
                <mxCell id="24" value="" style="shape=trapezoid;perimeter=trapezoidPerimeter;whiteSpace=wrap;html=1;fixedSize=1;rounded=0;glass=0;strokeColor=#000000;strokeWidth=4;fillColor=#fad7ac;rotation=-180;" parent="1" vertex="1">
                    <mxGeometry x="869.51" y="106.21000000000001" width="86" height="30" as="geometry"/>
                </mxCell>
                <mxCell id="25" style="edgeStyle=orthogonalEdgeStyle;rounded=0;jumpStyle=none;jumpSize=6;orthogonalLoop=1;jettySize=auto;html=1;entryX=0.5;entryY=0;entryDx=0;entryDy=0;startArrow=none;startFill=0;endArrow=classic;endFill=1;startSize=1;endSize=1;strokeColor=#000000;strokeWidth=5;exitX=0.5;exitY=0;exitDx=0;exitDy=0;" parent="1" source="26" edge="1">
                    <mxGeometry relative="1" as="geometry">
                        <mxPoint x="1011.7157142857138" y="99.84000000000015" as="sourcePoint"/>
                        <mxPoint x="1012.1000000000003" y="191.84000000000015" as="targetPoint"/>
                    </mxGeometry>
                </mxCell>
                <mxCell id="26" value="" style="shape=trapezoid;perimeter=trapezoidPerimeter;whiteSpace=wrap;html=1;fixedSize=1;rounded=0;glass=0;strokeColor=#000000;strokeWidth=4;fillColor=#fad7ac;rotation=-180;" parent="1" vertex="1">
                    <mxGeometry x="969.1" y="106.21000000000001" width="86" height="30" as="geometry"/>
                </mxCell>
                <mxCell id="27" style="edgeStyle=orthogonalEdgeStyle;rounded=0;jumpStyle=none;jumpSize=6;orthogonalLoop=1;jettySize=auto;html=1;entryX=0.5;entryY=0;entryDx=0;entryDy=0;startArrow=none;startFill=0;endArrow=classic;endFill=1;startSize=1;endSize=1;strokeColor=#000000;strokeWidth=5;exitX=0.5;exitY=0;exitDx=0;exitDy=0;" parent="1" source="28" edge="1">
                    <mxGeometry relative="1" as="geometry">
                        <mxPoint x="1554.4157142857139" y="101.34000000000015" as="sourcePoint"/>
                        <mxPoint x="1554.8000000000002" y="193.34000000000015" as="targetPoint"/>
                    </mxGeometry>
                </mxCell>
                <mxCell id="28" value="" style="shape=trapezoid;perimeter=trapezoidPerimeter;whiteSpace=wrap;html=1;fixedSize=1;rounded=0;glass=0;strokeColor=#000000;strokeWidth=4;fillColor=#fad7ac;rotation=-180;" parent="1" vertex="1">
                    <mxGeometry x="1511.8" y="107.71000000000001" width="86" height="30" as="geometry"/>
                </mxCell>
                <mxCell id="29" style="edgeStyle=orthogonalEdgeStyle;rounded=0;jumpStyle=none;jumpSize=6;orthogonalLoop=1;jettySize=auto;html=1;entryX=0.5;entryY=0;entryDx=0;entryDy=0;startArrow=none;startFill=0;endArrow=classic;endFill=1;startSize=1;endSize=1;strokeColor=#000000;strokeWidth=5;exitX=0.5;exitY=0;exitDx=0;exitDy=0;" parent="1" source="30" edge="1">
                    <mxGeometry relative="1" as="geometry">
                        <mxPoint x="1652.2557142857138" y="101.34000000000015" as="sourcePoint"/>
                        <mxPoint x="1652.6400000000003" y="193.34000000000015" as="targetPoint"/>
                    </mxGeometry>
                </mxCell>
                <mxCell id="30" value="" style="shape=trapezoid;perimeter=trapezoidPerimeter;whiteSpace=wrap;html=1;fixedSize=1;rounded=0;glass=0;strokeColor=#000000;strokeWidth=4;fillColor=#fad7ac;rotation=-180;" parent="1" vertex="1">
                    <mxGeometry x="1609.6399999999999" y="107.71000000000001" width="86" height="30" as="geometry"/>
                </mxCell>
                <mxCell id="31" style="edgeStyle=orthogonalEdgeStyle;rounded=0;jumpStyle=none;jumpSize=6;orthogonalLoop=1;jettySize=auto;html=1;entryX=0.5;entryY=0;entryDx=0;entryDy=0;startArrow=none;startFill=0;endArrow=classic;endFill=1;startSize=1;endSize=1;strokeColor=#000000;strokeWidth=5;exitX=0.5;exitY=0;exitDx=0;exitDy=0;" parent="1" source="32" edge="1">
                    <mxGeometry relative="1" as="geometry">
                        <mxPoint x="1751.8457142857137" y="101.34000000000015" as="sourcePoint"/>
                        <mxPoint x="1752.2300000000005" y="193.34000000000015" as="targetPoint"/>
                    </mxGeometry>
                </mxCell>
                <mxCell id="32" value="" style="shape=trapezoid;perimeter=trapezoidPerimeter;whiteSpace=wrap;html=1;fixedSize=1;rounded=0;glass=0;strokeColor=#000000;strokeWidth=4;fillColor=#fad7ac;rotation=-180;" parent="1" vertex="1">
                    <mxGeometry x="1709.23" y="107.71000000000001" width="86" height="30" as="geometry"/>
                </mxCell>
                <mxCell id="33" style="edgeStyle=orthogonalEdgeStyle;rounded=0;jumpStyle=none;jumpSize=6;orthogonalLoop=1;jettySize=auto;html=1;entryX=0.5;entryY=0;entryDx=0;entryDy=0;startArrow=none;startFill=0;endArrow=classic;endFill=1;startSize=1;endSize=1;strokeColor=#000000;strokeWidth=5;exitX=0.5;exitY=0;exitDx=0;exitDy=0;" parent="1" source="34" edge="1">
                    <mxGeometry relative="1" as="geometry">
                        <mxPoint x="2374.415714285714" y="99.84000000000013" as="sourcePoint"/>
                        <mxPoint x="2374.8" y="191.84000000000015" as="targetPoint"/>
                    </mxGeometry>
                </mxCell>
                <mxCell id="34" value="" style="shape=trapezoid;perimeter=trapezoidPerimeter;whiteSpace=wrap;html=1;fixedSize=1;rounded=0;glass=0;strokeColor=#000000;strokeWidth=4;fillColor=#fad7ac;rotation=-180;" parent="1" vertex="1">
                    <mxGeometry x="2331.8" y="106.21" width="86" height="30" as="geometry"/>
                </mxCell>
                <mxCell id="35" style="edgeStyle=orthogonalEdgeStyle;rounded=0;jumpStyle=none;jumpSize=6;orthogonalLoop=1;jettySize=auto;html=1;entryX=0.5;entryY=0;entryDx=0;entryDy=0;startArrow=none;startFill=0;endArrow=classic;endFill=1;startSize=1;endSize=1;strokeColor=#000000;strokeWidth=5;exitX=0.5;exitY=0;exitDx=0;exitDy=0;" parent="1" source="36" edge="1">
                    <mxGeometry relative="1" as="geometry">
                        <mxPoint x="2472.255714285714" y="99.84000000000013" as="sourcePoint"/>
                        <mxPoint x="2472.6400000000003" y="191.84000000000015" as="targetPoint"/>
                    </mxGeometry>
                </mxCell>
                <mxCell id="36" value="" style="shape=trapezoid;perimeter=trapezoidPerimeter;whiteSpace=wrap;html=1;fixedSize=1;rounded=0;glass=0;strokeColor=#000000;strokeWidth=4;fillColor=#fad7ac;rotation=-180;" parent="1" vertex="1">
                    <mxGeometry x="2429.6400000000003" y="106.21" width="86" height="30" as="geometry"/>
                </mxCell>
                <mxCell id="37" style="edgeStyle=orthogonalEdgeStyle;rounded=0;jumpStyle=none;jumpSize=6;orthogonalLoop=1;jettySize=auto;html=1;entryX=0.5;entryY=0;entryDx=0;entryDy=0;startArrow=none;startFill=0;endArrow=classic;endFill=1;startSize=1;endSize=1;strokeColor=#000000;strokeWidth=5;exitX=0.5;exitY=0;exitDx=0;exitDy=0;" parent="1" source="38" edge="1">
                    <mxGeometry relative="1" as="geometry">
                        <mxPoint x="2571.8457142857137" y="99.84000000000013" as="sourcePoint"/>
                        <mxPoint x="2572.2300000000005" y="191.84000000000015" as="targetPoint"/>
                    </mxGeometry>
                </mxCell>
                <mxCell id="38" value="" style="shape=trapezoid;perimeter=trapezoidPerimeter;whiteSpace=wrap;html=1;fixedSize=1;rounded=0;glass=0;strokeColor=#000000;strokeWidth=4;fillColor=#fad7ac;rotation=-180;" parent="1" vertex="1">
                    <mxGeometry x="2529.2300000000005" y="106.21" width="86" height="30" as="geometry"/>
                </mxCell>
                <mxCell id="40" value="" style="line;strokeWidth=13;html=1;fillColor=#990000;strokeColor=#990000;" parent="1" vertex="1">
                    <mxGeometry x="1248" y="-290" width="830" height="10" as="geometry"/>
                </mxCell>
                <mxCell id="42" style="edgeStyle=orthogonalEdgeStyle;rounded=0;jumpStyle=none;jumpSize=6;orthogonalLoop=1;jettySize=auto;html=1;entryX=0.25;entryY=1;entryDx=0;entryDy=0;startArrow=none;startFill=0;endArrow=classic;endFill=1;startSize=1;endSize=1;strokeColor=#000000;strokeWidth=5;" parent="1" target="34" edge="1">
                    <mxGeometry relative="1" as="geometry">
                        <mxPoint x="2396" y="49" as="sourcePoint"/>
                        <mxPoint x="2386.8" y="104.84000000000015" as="targetPoint"/>
                        <Array as="points">
                            <mxPoint x="2396" y="49"/>
                            <mxPoint x="2396" y="78"/>
                            <mxPoint x="2396" y="78"/>
                        </Array>
                    </mxGeometry>
                </mxCell>
                <mxCell id="43" style="edgeStyle=orthogonalEdgeStyle;rounded=0;jumpStyle=none;jumpSize=6;orthogonalLoop=1;jettySize=auto;html=1;entryX=0.25;entryY=1;entryDx=0;entryDy=0;startArrow=none;startFill=0;endArrow=classic;endFill=1;startSize=1;endSize=1;strokeColor=#000000;strokeWidth=5;" parent="1" edge="1">
                    <mxGeometry relative="1" as="geometry">
                        <mxPoint x="2492.51" y="49" as="sourcePoint"/>
                        <mxPoint x="2492.810000000001" y="106.21000000000004" as="targetPoint"/>
                        <Array as="points">
                            <mxPoint x="2492.51" y="49"/>
                            <mxPoint x="2492.51" y="78"/>
                            <mxPoint x="2492.51" y="78"/>
                        </Array>
                    </mxGeometry>
                </mxCell>
                <mxCell id="44" style="edgeStyle=orthogonalEdgeStyle;rounded=0;jumpStyle=none;jumpSize=6;orthogonalLoop=1;jettySize=auto;html=1;entryX=0.25;entryY=1;entryDx=0;entryDy=0;startArrow=none;startFill=0;endArrow=classic;endFill=1;startSize=1;endSize=1;strokeColor=#000000;strokeWidth=5;" parent="1" edge="1">
                    <mxGeometry relative="1" as="geometry">
                        <mxPoint x="2592.28" y="49" as="sourcePoint"/>
                        <mxPoint x="2592.580000000001" y="106.21000000000004" as="targetPoint"/>
                        <Array as="points">
                            <mxPoint x="2592.28" y="49"/>
                            <mxPoint x="2592.28" y="78"/>
                            <mxPoint x="2592.28" y="78"/>
                        </Array>
                    </mxGeometry>
                </mxCell>
                <mxCell id="46" value="" style="endArrow=none;html=1;rounded=0;startSize=1;endSize=1;strokeColor=#000000;strokeWidth=5;jumpStyle=none;jumpSize=6;" parent="1" edge="1">
                    <mxGeometry width="50" height="50" relative="1" as="geometry">
                        <mxPoint x="1510.0000000000005" y="51.50000000000023" as="sourcePoint"/>
                        <mxPoint x="1790.0000000000005" y="51.50000000000023" as="targetPoint"/>
                    </mxGeometry>
                </mxCell>
                <mxCell id="47" style="edgeStyle=orthogonalEdgeStyle;rounded=0;jumpStyle=none;jumpSize=6;orthogonalLoop=1;jettySize=auto;html=1;entryX=0.25;entryY=1;entryDx=0;entryDy=0;startArrow=none;startFill=0;endArrow=classic;endFill=1;startSize=1;endSize=1;strokeColor=#000000;strokeWidth=5;" parent="1" edge="1">
                    <mxGeometry relative="1" as="geometry">
                        <mxPoint x="1574.48" y="50.5" as="sourcePoint"/>
                        <mxPoint x="1574.7799999999997" y="107.71000000000004" as="targetPoint"/>
                        <Array as="points">
                            <mxPoint x="1574.48" y="50.5"/>
                            <mxPoint x="1574.48" y="79.5"/>
                            <mxPoint x="1574.48" y="79.5"/>
                        </Array>
                    </mxGeometry>
                </mxCell>
                <mxCell id="48" style="edgeStyle=orthogonalEdgeStyle;rounded=0;jumpStyle=none;jumpSize=6;orthogonalLoop=1;jettySize=auto;html=1;entryX=0.25;entryY=1;entryDx=0;entryDy=0;startArrow=none;startFill=0;endArrow=classic;endFill=1;startSize=1;endSize=1;strokeColor=#000000;strokeWidth=5;" parent="1" edge="1">
                    <mxGeometry relative="1" as="geometry">
                        <mxPoint x="1670.9900000000002" y="50.5" as="sourcePoint"/>
                        <mxPoint x="1671.2900000000009" y="107.71000000000004" as="targetPoint"/>
                        <Array as="points">
                            <mxPoint x="1670.9900000000002" y="50.5"/>
                            <mxPoint x="1670.9900000000002" y="79.5"/>
                            <mxPoint x="1670.9900000000002" y="79.5"/>
                        </Array>
                    </mxGeometry>
                </mxCell>
                <mxCell id="49" style="edgeStyle=orthogonalEdgeStyle;rounded=0;jumpStyle=none;jumpSize=6;orthogonalLoop=1;jettySize=auto;html=1;entryX=0.25;entryY=1;entryDx=0;entryDy=0;startArrow=none;startFill=0;endArrow=classic;endFill=1;startSize=1;endSize=1;strokeColor=#000000;strokeWidth=5;" parent="1" edge="1">
                    <mxGeometry relative="1" as="geometry">
                        <mxPoint x="1770.7600000000002" y="50.5" as="sourcePoint"/>
                        <mxPoint x="1771.0600000000009" y="107.71000000000004" as="targetPoint"/>
                        <Array as="points">
                            <mxPoint x="1770.7600000000002" y="50.5"/>
                            <mxPoint x="1770.7600000000002" y="79.5"/>
                            <mxPoint x="1770.7600000000002" y="79.5"/>
                        </Array>
                    </mxGeometry>
                </mxCell>
                <mxCell id="50" value="Kaxis = horizontal&amp;nbsp;" style="text;html=1;strokeColor=none;fillColor=none;align=center;verticalAlign=middle;whiteSpace=wrap;rounded=0;glass=0;fontSize=50;fontColor=#000000;horizontal=0;rotation=90;fontStyle=1" parent="1" vertex="1">
                    <mxGeometry x="1635.6399999999999" y="560" width="60" height="645" as="geometry"/>
                </mxCell>
                <mxCell id="51" value="" style="endArrow=none;html=1;rounded=0;startSize=1;endSize=1;strokeColor=#000000;strokeWidth=5;jumpStyle=none;jumpSize=6;" parent="1" edge="1">
                    <mxGeometry width="50" height="50" relative="1" as="geometry">
                        <mxPoint x="767.1700000000004" y="50.000000000000455" as="sourcePoint"/>
                        <mxPoint x="1047.1700000000008" y="50.000000000000455" as="targetPoint"/>
                    </mxGeometry>
                </mxCell>
                <mxCell id="52" style="edgeStyle=orthogonalEdgeStyle;rounded=0;jumpStyle=none;jumpSize=6;orthogonalLoop=1;jettySize=auto;html=1;entryX=0.25;entryY=1;entryDx=0;entryDy=0;startArrow=none;startFill=0;endArrow=classic;endFill=1;startSize=1;endSize=1;strokeColor=#000000;strokeWidth=5;" parent="1" edge="1">
                    <mxGeometry relative="1" as="geometry">
                        <mxPoint x="831.65" y="49" as="sourcePoint"/>
                        <mxPoint x="831.9499999999997" y="106.21000000000004" as="targetPoint"/>
                        <Array as="points">
                            <mxPoint x="831.65" y="49"/>
                            <mxPoint x="831.65" y="78"/>
                            <mxPoint x="831.65" y="78"/>
                        </Array>
                    </mxGeometry>
                </mxCell>
                <mxCell id="53" style="edgeStyle=orthogonalEdgeStyle;rounded=0;jumpStyle=none;jumpSize=6;orthogonalLoop=1;jettySize=auto;html=1;entryX=0.25;entryY=1;entryDx=0;entryDy=0;startArrow=none;startFill=0;endArrow=classic;endFill=1;startSize=1;endSize=1;strokeColor=#000000;strokeWidth=5;" parent="1" edge="1">
                    <mxGeometry relative="1" as="geometry">
                        <mxPoint x="928.1600000000002" y="49" as="sourcePoint"/>
                        <mxPoint x="928.4600000000008" y="106.21000000000004" as="targetPoint"/>
                        <Array as="points">
                            <mxPoint x="928.1600000000002" y="49"/>
                            <mxPoint x="928.1600000000002" y="78"/>
                            <mxPoint x="928.1600000000002" y="78"/>
                        </Array>
                    </mxGeometry>
                </mxCell>
                <mxCell id="54" style="edgeStyle=orthogonalEdgeStyle;rounded=0;jumpStyle=none;jumpSize=6;orthogonalLoop=1;jettySize=auto;html=1;entryX=0.25;entryY=1;entryDx=0;entryDy=0;startArrow=none;startFill=0;endArrow=classic;endFill=1;startSize=1;endSize=1;strokeColor=#000000;strokeWidth=5;" parent="1" edge="1">
                    <mxGeometry relative="1" as="geometry">
                        <mxPoint x="1027.93" y="49" as="sourcePoint"/>
                        <mxPoint x="1028.2300000000007" y="106.21000000000004" as="targetPoint"/>
                        <Array as="points">
                            <mxPoint x="1027.93" y="49"/>
                            <mxPoint x="1027.93" y="78"/>
                            <mxPoint x="1027.93" y="78"/>
                        </Array>
                    </mxGeometry>
                </mxCell>
                <mxCell id="55" style="edgeStyle=none;rounded=1;html=1;exitX=0.5;exitY=1;exitDx=0;exitDy=0;strokeWidth=5;strokeColor=#990000;" parent="1" source="ybkfhQOrvzYeeOzd-4GA-9" target="40" edge="1">
                    <mxGeometry relative="1" as="geometry"/>
                </mxCell>
                <mxCell id="58" style="edgeStyle=orthogonalEdgeStyle;rounded=0;jumpStyle=none;jumpSize=6;orthogonalLoop=1;jettySize=auto;html=1;entryX=0.25;entryY=1;entryDx=0;entryDy=0;startArrow=none;startFill=0;endArrow=classic;endFill=1;startSize=1;endSize=1;strokeColor=#990000;strokeWidth=3;dashed=1;" parent="1" edge="1">
                    <mxGeometry relative="1" as="geometry">
                        <mxPoint x="991" y="58" as="sourcePoint"/>
                        <mxPoint x="991.2500000000007" y="104.21000000000004" as="targetPoint"/>
                        <Array as="points">
                            <mxPoint x="991" y="76"/>
                            <mxPoint x="991" y="76"/>
                        </Array>
                    </mxGeometry>
                </mxCell>
                <mxCell id="59" style="edgeStyle=orthogonalEdgeStyle;rounded=0;jumpStyle=none;jumpSize=6;orthogonalLoop=1;jettySize=auto;html=1;entryX=0.25;entryY=1;entryDx=0;entryDy=0;startArrow=none;startFill=0;endArrow=classic;endFill=1;startSize=1;endSize=1;strokeColor=#990000;strokeWidth=3;dashed=1;" parent="1" edge="1">
                    <mxGeometry relative="1" as="geometry">
                        <mxPoint x="892.51" y="60" as="sourcePoint"/>
                        <mxPoint x="892.7600000000007" y="106.21000000000004" as="targetPoint"/>
                        <Array as="points">
                            <mxPoint x="892.51" y="78"/>
                            <mxPoint x="892.51" y="78"/>
                        </Array>
                    </mxGeometry>
                </mxCell>
                <mxCell id="60" style="edgeStyle=orthogonalEdgeStyle;rounded=0;jumpStyle=none;jumpSize=6;orthogonalLoop=1;jettySize=auto;html=1;entryX=0.25;entryY=1;entryDx=0;entryDy=0;startArrow=none;startFill=0;endArrow=classic;endFill=1;startSize=1;endSize=1;strokeColor=#990000;strokeWidth=3;dashed=1;" parent="1" edge="1">
                    <mxGeometry relative="1" as="geometry">
                        <mxPoint x="790" y="60" as="sourcePoint"/>
                        <mxPoint x="790.2500000000007" y="106.21000000000004" as="targetPoint"/>
                        <Array as="points">
                            <mxPoint x="790" y="78"/>
                            <mxPoint x="790" y="78"/>
                        </Array>
                    </mxGeometry>
                </mxCell>
                <mxCell id="61" style="edgeStyle=orthogonalEdgeStyle;rounded=0;jumpStyle=none;jumpSize=6;orthogonalLoop=1;jettySize=auto;html=1;entryX=0.25;entryY=1;entryDx=0;entryDy=0;startArrow=none;startFill=0;endArrow=classic;endFill=1;startSize=1;endSize=1;strokeColor=#990000;strokeWidth=3;dashed=1;" parent="1" edge="1">
                    <mxGeometry relative="1" as="geometry">
                        <mxPoint x="1734.6" y="58.42" as="sourcePoint"/>
                        <mxPoint x="1734.8500000000006" y="104.63000000000004" as="targetPoint"/>
                        <Array as="points">
                            <mxPoint x="1734.6" y="76.42"/>
                            <mxPoint x="1734.6" y="76.42"/>
                        </Array>
                    </mxGeometry>
                </mxCell>
                <mxCell id="62" style="edgeStyle=orthogonalEdgeStyle;rounded=0;jumpStyle=none;jumpSize=6;orthogonalLoop=1;jettySize=auto;html=1;entryX=0.25;entryY=1;entryDx=0;entryDy=0;startArrow=none;startFill=0;endArrow=classic;endFill=1;startSize=1;endSize=1;strokeColor=#990000;strokeWidth=3;dashed=1;" parent="1" edge="1">
                    <mxGeometry relative="1" as="geometry">
                        <mxPoint x="1636.11" y="60.42" as="sourcePoint"/>
                        <mxPoint x="1636.3600000000006" y="106.63000000000004" as="targetPoint"/>
                        <Array as="points">
                            <mxPoint x="1636.11" y="78.42"/>
                            <mxPoint x="1636.11" y="78.42"/>
                        </Array>
                    </mxGeometry>
                </mxCell>
                <mxCell id="63" style="edgeStyle=orthogonalEdgeStyle;rounded=0;jumpStyle=none;jumpSize=6;orthogonalLoop=1;jettySize=auto;html=1;entryX=0.25;entryY=1;entryDx=0;entryDy=0;startArrow=none;startFill=0;endArrow=classic;endFill=1;startSize=1;endSize=1;strokeColor=#990000;strokeWidth=3;dashed=1;" parent="1" edge="1">
                    <mxGeometry relative="1" as="geometry">
                        <mxPoint x="1533.6" y="60.42" as="sourcePoint"/>
                        <mxPoint x="1533.8500000000008" y="106.63000000000004" as="targetPoint"/>
                        <Array as="points">
                            <mxPoint x="1533.6" y="78.42"/>
                            <mxPoint x="1533.6" y="78.42"/>
                        </Array>
                    </mxGeometry>
                </mxCell>
                <mxCell id="64" style="edgeStyle=orthogonalEdgeStyle;rounded=0;jumpStyle=none;jumpSize=6;orthogonalLoop=1;jettySize=auto;html=1;entryX=0.25;entryY=1;entryDx=0;entryDy=0;startArrow=none;startFill=0;endArrow=classic;endFill=1;startSize=1;endSize=1;strokeColor=#990000;strokeWidth=3;dashed=1;" parent="1" edge="1">
                    <mxGeometry relative="1" as="geometry">
                        <mxPoint x="2554.6" y="57.42000000000007" as="sourcePoint"/>
                        <mxPoint x="2554.8500000000004" y="103.63000000000011" as="targetPoint"/>
                        <Array as="points">
                            <mxPoint x="2554.6" y="75.42"/>
                            <mxPoint x="2554.6" y="75.42"/>
                        </Array>
                    </mxGeometry>
                </mxCell>
                <mxCell id="65" style="edgeStyle=orthogonalEdgeStyle;rounded=0;jumpStyle=none;jumpSize=6;orthogonalLoop=1;jettySize=auto;html=1;entryX=0.25;entryY=1;entryDx=0;entryDy=0;startArrow=none;startFill=0;endArrow=classic;endFill=1;startSize=1;endSize=1;strokeColor=#990000;strokeWidth=3;dashed=1;" parent="1" edge="1">
                    <mxGeometry relative="1" as="geometry">
                        <mxPoint x="2456.1099999999997" y="59.42000000000007" as="sourcePoint"/>
                        <mxPoint x="2456.360000000001" y="105.63000000000011" as="targetPoint"/>
                        <Array as="points">
                            <mxPoint x="2456.1099999999997" y="77.42"/>
                            <mxPoint x="2456.1099999999997" y="77.42"/>
                        </Array>
                    </mxGeometry>
                </mxCell>
                <mxCell id="66" style="edgeStyle=orthogonalEdgeStyle;rounded=0;jumpStyle=none;jumpSize=6;orthogonalLoop=1;jettySize=auto;html=1;entryX=0.25;entryY=1;entryDx=0;entryDy=0;startArrow=none;startFill=0;endArrow=classic;endFill=1;startSize=1;endSize=1;strokeColor=#990000;strokeWidth=3;dashed=1;" parent="1" edge="1">
                    <mxGeometry relative="1" as="geometry">
                        <mxPoint x="2353.6" y="59.42000000000007" as="sourcePoint"/>
                        <mxPoint x="2353.850000000001" y="105.63000000000011" as="targetPoint"/>
                        <Array as="points">
                            <mxPoint x="2353.6" y="77.42"/>
                            <mxPoint x="2353.6" y="77.42"/>
                        </Array>
                    </mxGeometry>
                </mxCell>
                <mxCell id="67" style="edgeStyle=orthogonalEdgeStyle;rounded=0;jumpStyle=none;jumpSize=6;orthogonalLoop=1;jettySize=auto;html=1;entryX=0.25;entryY=1;entryDx=0;entryDy=0;startArrow=none;startFill=0;endArrow=classic;endFill=1;startSize=1;endSize=1;strokeColor=#990000;strokeWidth=3;dashed=1;" parent="1" edge="1">
                    <mxGeometry relative="1" as="geometry">
                        <mxPoint x="1760.6000000000004" y="-282.5799999999999" as="sourcePoint"/>
                        <mxPoint x="1760.8500000000004" y="-236.3699999999999" as="targetPoint"/>
                        <Array as="points">
                            <mxPoint x="1760.6" y="-264.58"/>
                            <mxPoint x="1760.6" y="-264.58"/>
                        </Array>
                    </mxGeometry>
                </mxCell>
                <mxCell id="68" style="edgeStyle=orthogonalEdgeStyle;rounded=0;jumpStyle=none;jumpSize=6;orthogonalLoop=1;jettySize=auto;html=1;entryX=0.25;entryY=1;entryDx=0;entryDy=0;startArrow=none;startFill=0;endArrow=classic;endFill=1;startSize=1;endSize=1;strokeColor=#990000;strokeWidth=3;dashed=1;" parent="1" edge="1">
                    <mxGeometry relative="1" as="geometry">
                        <mxPoint x="1662.1099999999997" y="-280.5799999999999" as="sourcePoint"/>
                        <mxPoint x="1662.3600000000006" y="-234.3699999999999" as="targetPoint"/>
                        <Array as="points">
                            <mxPoint x="1662.1099999999997" y="-262.58"/>
                            <mxPoint x="1662.1099999999997" y="-262.58"/>
                        </Array>
                    </mxGeometry>
                </mxCell>
                <mxCell id="69" style="edgeStyle=orthogonalEdgeStyle;rounded=0;jumpStyle=none;jumpSize=6;orthogonalLoop=1;jettySize=auto;html=1;entryX=0.25;entryY=1;entryDx=0;entryDy=0;startArrow=none;startFill=0;endArrow=classic;endFill=1;startSize=1;endSize=1;strokeColor=#990000;strokeWidth=3;dashed=1;" parent="1" edge="1">
                    <mxGeometry relative="1" as="geometry">
                        <mxPoint x="1559.6000000000004" y="-280.5799999999999" as="sourcePoint"/>
                        <mxPoint x="1559.8500000000004" y="-234.3699999999999" as="targetPoint"/>
                        <Array as="points">
                            <mxPoint x="1559.6" y="-262.58"/>
                            <mxPoint x="1559.6" y="-262.58"/>
                        </Array>
                    </mxGeometry>
                </mxCell>
                <mxCell id="70" style="edgeStyle=orthogonalEdgeStyle;rounded=0;jumpStyle=none;jumpSize=6;orthogonalLoop=1;jettySize=auto;html=1;entryX=0.25;entryY=1;entryDx=0;entryDy=0;startArrow=none;startFill=0;endArrow=classic;endFill=1;startSize=1;endSize=1;strokeColor=#990000;strokeWidth=3;dashed=1;" parent="1" edge="1">
                    <mxGeometry relative="1" as="geometry">
                        <mxPoint x="2061.6000000000004" y="-284.5799999999999" as="sourcePoint"/>
                        <mxPoint x="2061.8500000000004" y="-238.3699999999999" as="targetPoint"/>
                        <Array as="points">
                            <mxPoint x="2061.6" y="-266.58"/>
                            <mxPoint x="2061.6" y="-266.58"/>
                        </Array>
                    </mxGeometry>
                </mxCell>
                <mxCell id="71" style="edgeStyle=orthogonalEdgeStyle;rounded=0;jumpStyle=none;jumpSize=6;orthogonalLoop=1;jettySize=auto;html=1;entryX=0.25;entryY=1;entryDx=0;entryDy=0;startArrow=none;startFill=0;endArrow=classic;endFill=1;startSize=1;endSize=1;strokeColor=#990000;strokeWidth=3;dashed=1;" parent="1" edge="1">
                    <mxGeometry relative="1" as="geometry">
                        <mxPoint x="1963.1099999999994" y="-282.5799999999999" as="sourcePoint"/>
                        <mxPoint x="1963.3600000000006" y="-236.3699999999999" as="targetPoint"/>
                        <Array as="points">
                            <mxPoint x="1963.1099999999997" y="-264.58"/>
                            <mxPoint x="1963.1099999999997" y="-264.58"/>
                        </Array>
                    </mxGeometry>
                </mxCell>
                <mxCell id="72" style="edgeStyle=orthogonalEdgeStyle;rounded=0;jumpStyle=none;jumpSize=6;orthogonalLoop=1;jettySize=auto;html=1;entryX=0.25;entryY=1;entryDx=0;entryDy=0;startArrow=none;startFill=0;endArrow=classic;endFill=1;startSize=1;endSize=1;strokeColor=#990000;strokeWidth=3;dashed=1;" parent="1" edge="1">
                    <mxGeometry relative="1" as="geometry">
                        <mxPoint x="1860.6000000000004" y="-282.5799999999999" as="sourcePoint"/>
                        <mxPoint x="1860.8500000000004" y="-236.3699999999999" as="targetPoint"/>
                        <Array as="points">
                            <mxPoint x="1860.6" y="-264.58"/>
                            <mxPoint x="1860.6" y="-264.58"/>
                        </Array>
                    </mxGeometry>
                </mxCell>
                <mxCell id="73" style="edgeStyle=orthogonalEdgeStyle;rounded=0;jumpStyle=none;jumpSize=6;orthogonalLoop=1;jettySize=auto;html=1;entryX=0.25;entryY=1;entryDx=0;entryDy=0;startArrow=none;startFill=0;endArrow=classic;endFill=1;startSize=1;endSize=1;strokeColor=#990000;strokeWidth=3;dashed=1;" parent="1" edge="1">
                    <mxGeometry relative="1" as="geometry">
                        <mxPoint x="1459.6000000000004" y="-280.5799999999999" as="sourcePoint"/>
                        <mxPoint x="1459.8500000000004" y="-234.3699999999999" as="targetPoint"/>
                        <Array as="points">
                            <mxPoint x="1459.6" y="-262.58"/>
                            <mxPoint x="1459.6" y="-262.58"/>
                        </Array>
                    </mxGeometry>
                </mxCell>
                <mxCell id="74" style="edgeStyle=orthogonalEdgeStyle;rounded=0;jumpStyle=none;jumpSize=6;orthogonalLoop=1;jettySize=auto;html=1;entryX=0.25;entryY=1;entryDx=0;entryDy=0;startArrow=none;startFill=0;endArrow=classic;endFill=1;startSize=1;endSize=1;strokeColor=#990000;strokeWidth=3;dashed=1;" parent="1" edge="1">
                    <mxGeometry relative="1" as="geometry">
                        <mxPoint x="1361.1099999999997" y="-278.5799999999999" as="sourcePoint"/>
                        <mxPoint x="1361.3600000000006" y="-232.3699999999999" as="targetPoint"/>
                        <Array as="points">
                            <mxPoint x="1361.1099999999997" y="-260.58"/>
                            <mxPoint x="1361.1099999999997" y="-260.58"/>
                        </Array>
                    </mxGeometry>
                </mxCell>
                <mxCell id="75" style="edgeStyle=orthogonalEdgeStyle;rounded=0;jumpStyle=none;jumpSize=6;orthogonalLoop=1;jettySize=auto;html=1;entryX=0.25;entryY=1;entryDx=0;entryDy=0;startArrow=none;startFill=0;endArrow=classic;endFill=1;startSize=1;endSize=1;strokeColor=#990000;strokeWidth=3;dashed=1;" parent="1" edge="1">
                    <mxGeometry relative="1" as="geometry">
                        <mxPoint x="1258.6000000000004" y="-278.5799999999999" as="sourcePoint"/>
                        <mxPoint x="1258.8500000000004" y="-232.3699999999999" as="targetPoint"/>
                        <Array as="points">
                            <mxPoint x="1258.6" y="-260.58"/>
                            <mxPoint x="1258.6" y="-260.58"/>
                        </Array>
                    </mxGeometry>
                </mxCell>
            </root>
        </mxGraphModel>
    </diagram>
</mxfile>